<?xml version="1.0" standalone="no"?>
<!DOCTYPE svg PUBLIC "-//W3C//DTD SVG 20010904//EN"
 "http://www.w3.org/TR/2001/REC-SVG-20010904/DTD/svg10.dtd">
<svg version="1.0" xmlns="http://www.w3.org/2000/svg"
 width="700.000000pt" height="700.000000pt" viewBox="0 0 700.000000 700.000000"
 preserveAspectRatio="xMidYMid meet">
<metadata>
Created by potrace 1.14, written by Peter Selinger 2001-2017
</metadata>
<g transform="translate(0.000000,700.000000) scale(0.100000,-0.100000)"
fill="#000000" stroke="none">
<path d="M1309 6998 c0 -2 -2 -34 -4 -73 -17 -282 -125 -552 -309 -770 -238
-280 -590 -452 -944 -459 l-52 -1 0 -682 0 -683 73 -1 c39 -1 81 -3 92 -4 280
-35 541 -162 745 -365 111 -110 127 -129 185 -219 134 -208 199 -418 214 -696
1 -20 7 -20 644 -18 353 1 658 2 678 2 l36 1 -3 78 c-3 74 -11 189 -18 242 -2
14 -7 48 -10 75 -9 68 -12 85 -40 205 -110 491 -381 966 -757 1327 l-59 57
106 105 c283 280 511 646 639 1026 26 77 73 245 81 293 10 57 13 71 22 127 21
117 31 220 36 353 l3 82 -679 0 c-373 0 -678 -1 -679 -2z"/>
<path d="M4284 6937 c-3 -156 -52 -343 -130 -502 -61 -125 -60 -125 -131 -220
-122 -163 -273 -290 -460 -384 -77 -39 -226 -93 -288 -106 -78 -15 -146 -25
-205 -29 -36 -2 -71 -5 -77 -5 -10 -1 -13 -144 -13 -679 l0 -679 63 3 c82 3
245 15 271 20 20 3 50 8 131 19 22 3 47 7 55 10 8 2 29 7 45 9 17 3 80 19 140
36 454 127 866 369 1187 695 l93 94 105 -103 c125 -124 176 -168 295 -256 175
-130 374 -244 550 -315 50 -20 99 -40 110 -45 53 -25 327 -102 408 -115 12 -2
49 -9 82 -14 104 -18 201 -28 363 -36 l72 -3 0 679 c0 373 -3 680 -7 680 -5 1
-35 3 -68 4 -442 20 -870 297 -1082 700 -58 111 -113 274 -128 378 -3 27 -8
59 -11 70 -2 12 -5 52 -6 90 l-1 67 -681 0 -681 0 -1 -63z"/>
<path d="M4289 4008 c-3 -53 6 -220 15 -298 74 -598 324 -1120 743 -1550 l122
-126 -94 -94 c-82 -82 -148 -157 -243 -276 -48 -59 -160 -232 -216 -331 -108
-194 -218 -480 -262 -686 -15 -70 -33 -169 -40 -217 -3 -30 -8 -66 -10 -80 -2
-14 -6 -79 -9 -145 -4 -66 -8 -128 -10 -138 -3 -16 35 -17 680 -17 l682 0 0
38 c-3 122 41 329 99 465 67 160 156 291 283 418 172 172 370 285 598 343 91
23 121 27 226 33 62 3 97 9 98 17 4 46 3 1339 -1 1345 -3 4 -21 7 -40 7 -103
0 -276 30 -375 65 -59 21 -71 26 -150 63 -276 130 -519 383 -636 665 -32 77
-65 181 -75 236 -2 17 -7 37 -9 45 -7 25 -17 122 -19 178 l-1 52 -677 0 c-535
0 -678 -3 -679 -12z"/>
<path d="M10 2710 c-7 -4 -9 -230 -8 -680 l3 -675 75 -3 c165 -7 362 -61 519
-143 289 -151 513 -402 627 -705 22 -59 53 -170 59 -214 1 -8 5 -35 9 -60 4
-25 9 -72 11 -105 1 -33 3 -64 4 -70 1 -10 1345 -14 1355 -4 3 2 6 37 7 77 10
307 150 616 384 847 109 108 202 175 335 242 156 79 357 132 521 136 l59 2 1
65 c0 82 0 1272 0 1284 -1 8 -253 2 -296 -7 -11 -3 -49 -8 -85 -12 -156 -17
-463 -100 -634 -172 -130 -53 -326 -159 -446 -238 -161 -108 -268 -193 -410
-332 l-115 -112 -105 104 c-107 106 -206 191 -302 261 -29 21 -54 42 -56 46
-2 5 -8 8 -12 8 -5 0 -47 24 -92 54 -174 112 -348 195 -558 265 -157 53 -184
61 -218 68 -15 3 -31 6 -37 7 -78 18 -164 34 -220 41 -22 3 -51 7 -64 10 -13
2 -71 7 -130 11 -58 3 -121 7 -138 8 -18 1 -37 0 -43 -4z"/>
</g>
</svg>
