<svg width="80" height="80" viewBox="0 0 80 80" fill="none" xmlns="http://www.w3.org/2000/svg">
<path fill-rule="evenodd" clip-rule="evenodd" d="M0 23.2284C0 21.8872 1.08722 20.8 2.42838 20.8H41.7342C51.3768 20.8 59.2 28.6266 59.2 38.2658V77.5716C59.2 78.9128 58.1128 80 56.7716 80H2.42838C1.08722 80 0 78.9128 0 77.5716V23.2284ZM4.85676 25.6568V75.1432H54.3432V38.2658C54.3432 31.3084 48.6939 25.6568 41.7342 25.6568H4.85676Z" fill="white"/>
<path fill-rule="evenodd" clip-rule="evenodd" d="M20 2.4179C20 1.08253 21.1019 0 22.4611 0H77.5389C78.8981 0 80 1.08253 80 2.4179V56.5295C80 57.8648 78.8981 58.9474 77.5389 58.9474H36.6124C27.443 58.9474 20 51.6349 20 42.6264V2.4179ZM24.9222 4.8358V42.6264C24.9222 48.9642 30.1615 54.1116 36.6124 54.1116H75.0778V4.8358H24.9222Z" fill="white"/>
<path fill-rule="evenodd" clip-rule="evenodd" d="M79.2639 54.8534C80.2366 55.8194 80.2466 57.3956 79.2861 58.3739L58.782 79.2597C57.8215 80.238 56.2543 80.248 55.2816 79.282C54.3088 78.316 54.2989 76.7398 55.2594 75.7615L75.7635 54.8757C76.724 53.8974 78.2911 53.8874 79.2639 54.8534Z" fill="white"/>
<path fill-rule="evenodd" clip-rule="evenodd" d="M24.1299 0.701312C25.0795 1.64485 25.0892 3.1844 24.1516 4.14L4.13563 24.54C3.19803 25.4956 1.66817 25.5054 0.718586 24.5618C-0.230994 23.6183 -0.240704 22.0788 0.696899 21.1232L20.7129 0.723136C21.6505 -0.232457 23.1803 -0.242228 24.1299 0.701312Z" fill="white"/>
</svg>
