<svg width="80" height="80" viewBox="0 0 80 80" fill="none" xmlns="http://www.w3.org/2000/svg">
<path d="M70.3619 64.1682C66.8955 61.3051 54.9033 51.7293 53.3102 50.4561C54.214 48.7478 54.6793 46.8417 54.6642 44.909C54.6491 42.9764 54.154 41.0778 53.2235 39.3838L66.5556 29.2881L70.4552 26.125C71.4151 25.4884 71.5718 24.7918 70.8752 23.8619C69.9666 22.668 68.9836 21.5325 67.9321 20.4622C62.1708 14.5907 54.5199 10.9441 46.3308 10.1665V3.45383C46.3426 2.5931 46.0287 1.7597 45.4521 1.1206C44.8754 0.481495 44.0785 0.0839074 43.2211 0.00749021C42.765 -0.0231395 42.3074 0.0403859 41.8769 0.194117C41.4464 0.347848 41.0521 0.588497 40.7186 0.901103C40.385 1.21371 40.1193 1.59159 39.9381 2.01125C39.7568 2.43091 39.6637 2.88337 39.6648 3.34051V10.1665C36.8222 10.4349 34.0235 11.0528 31.3322 12.0064V3.45383C31.344 2.5931 31.0301 1.7597 30.4535 1.1206C29.8768 0.481495 29.0799 0.0839074 28.2225 0.00749021C27.7664 -0.0231395 27.3089 0.0403859 26.8783 0.194117C26.4478 0.347848 26.0535 0.588497 25.72 0.901103C25.3864 1.21371 25.1207 1.59159 24.9395 2.01125C24.7582 2.43091 24.6652 2.88337 24.6662 3.34051V15.1894C19.6135 18.2961 15.4334 22.636 12.5183 27.8016C9.6032 32.9671 8.0488 38.7888 8.00108 44.72C7.84776 64.1248 24.0196 80 43.4244 80H69.3286C69.8009 79.9995 70.2577 79.8319 70.6183 79.5269C70.9788 79.2219 71.2198 78.7991 71.2985 78.3335L71.3251 66.228C71.3263 65.8348 71.2406 65.4463 71.0741 65.0902C70.9076 64.7341 70.6644 64.4193 70.3619 64.1682ZM64.6624 73.334H43.3478C27.6826 73.334 14.5905 60.5218 14.6838 44.86C14.6987 40.7759 15.5988 36.7436 17.3221 33.0409C19.0454 29.3382 21.551 26.0531 24.6662 23.412V29.8914C24.6544 30.7521 24.9683 31.5855 25.5449 32.2246C26.1216 32.8637 26.9185 33.2613 27.7759 33.3377C28.232 33.3683 28.6895 33.3048 29.1201 33.1511C29.5506 32.9973 29.9449 32.7567 30.2784 32.4441C30.612 32.1315 30.8776 31.7536 31.0589 31.3339C31.2402 30.9143 31.3332 30.4618 31.3322 30.0047V19.189C34.9965 17.527 38.9742 16.669 42.9978 16.6726C50.4504 16.6726 56.7298 19.1457 61.7894 23.8486L48.1806 34.5543C46.3988 33.6701 44.4206 33.2563 42.4338 33.3521C40.447 33.4479 38.5177 34.0501 36.8292 35.1015C35.1407 36.1529 33.7491 37.6186 32.7866 39.3593C31.8241 41.1 31.3227 43.0579 31.33 45.047C31.3373 47.0361 31.8531 48.9903 32.8284 50.7238C33.8036 52.4574 35.206 53.9129 36.9022 54.9518C38.5983 55.9908 40.532 56.5788 42.5194 56.66C44.5069 56.7412 46.482 56.3128 48.2573 55.4156L48.0873 55.569L64.6624 68.3344V73.334ZM47.9973 45.0033C47.9973 45.9921 47.7041 46.9587 47.1547 47.7809C46.6054 48.603 45.8246 49.2438 44.911 49.6222C43.9975 50.0006 42.9922 50.0997 42.0224 49.9067C41.0526 49.7138 40.1618 49.2377 39.4626 48.5385C38.7634 47.8393 38.2872 46.9485 38.0943 45.9786C37.9014 45.0088 38.0004 44.0036 38.3788 43.09C38.7572 42.1765 39.398 41.3957 40.2202 40.8463C41.0424 40.297 42.009 40.0037 42.9978 40.0037C44.3237 40.0037 45.5954 40.5305 46.533 41.4681C47.4706 42.4057 47.9973 43.6773 47.9973 45.0033Z" fill="white"/>
<path d="M64.7526 45.0033C64.7573 49.1965 63.5451 53.301 61.2629 56.8188C63.0194 58.2287 64.8226 59.6752 66.4091 60.9551C69.5851 56.293 71.2971 50.7888 71.3256 45.1477C71.3541 39.5066 69.6978 33.9854 66.5691 29.2914L61.3295 33.2677C63.5734 36.7699 64.7618 40.8439 64.7526 45.0033Z" fill="white"/>
</svg>
