<svg width="84" height="84" viewBox="0 0 84 84" fill="none" xmlns="http://www.w3.org/2000/svg">
<path d="M76.1461 36.3105C79.9169 32.5408 82.0352 27.4287 82.0352 22.0982C82.0352 16.7676 79.9169 11.6553 76.1461 7.88556C72.3755 4.11711 67.2617 2 61.9294 2C56.5971 2 51.4832 4.11711 47.7126 7.88556L27.8004 27.7875L56.2339 56.2063L76.1461 36.3105Z" fill="white" stroke="#041E42" stroke-width="3" stroke-linecap="round" stroke-linejoin="round"/>
<path d="M27.8007 27.7874L7.8886 47.6893C4.11821 51.458 2 56.5691 2 61.8986C2 67.2281 4.11821 72.3395 7.8886 76.1081C11.6592 79.8766 16.7731 81.9934 22.1054 81.9934C27.4376 81.9934 32.5515 79.8766 36.3221 76.1081L56.2342 56.2062L27.8007 27.7874Z" fill="white" stroke="#041E42" stroke-width="3" stroke-linecap="round" stroke-linejoin="round"/>
<path d="M73.5015 5.66742C76.2292 9.53769 77.5023 14.2462 77.0963 18.9629C76.6903 23.6796 74.6311 28.1015 71.282 31.4492L51.3699 51.3447L56.2338 56.2063L76.146 36.3105C79.9168 32.5408 82.0351 27.4287 82.0351 22.0982C82.0351 16.7676 79.9168 11.6553 76.146 7.88556C75.3299 7.07157 74.4451 6.32952 73.5015 5.66742Z" fill="white" stroke="#041E42" stroke-width="3" stroke-linecap="round" stroke-linejoin="round"/>
<path d="M51.3708 51.3447L31.4648 71.2467C28.1154 74.5982 23.6891 76.6594 18.9672 77.0664C14.2452 77.4734 9.5311 76.2002 5.65704 73.4713C6.31948 74.4144 7.06207 75.2988 7.87649 76.1144C11.6471 79.8829 16.761 82 22.0932 82C27.4255 82 32.5394 79.8829 36.31 76.1144L56.2221 56.2124L51.3583 51.3511L51.3708 51.3447Z" fill="white" stroke="#041E42" stroke-width="3" stroke-linecap="round" stroke-linejoin="round"/>
</svg>
