<svg width="80" height="80" viewBox="0 0 80 80" fill="none" xmlns="http://www.w3.org/2000/svg">
<path d="M39.9982 13.1671C41.2975 13.1536 42.5638 12.756 43.6376 12.0243C44.7114 11.2926 45.5446 10.2595 46.0324 9.05514C46.5202 7.85077 46.6406 6.529 46.3787 5.25629C46.1167 3.98358 45.4839 2.81686 44.5601 1.90306C43.6363 0.989266 42.4628 0.369264 41.1873 0.121145C39.9118 -0.126974 38.5915 0.00788495 37.3925 0.508737C36.1935 1.00959 35.1695 1.85404 34.4495 2.93572C33.7295 4.01741 33.3457 5.28796 33.3465 6.58735C33.357 8.34162 34.0635 10.02 35.3107 11.2537C36.558 12.4874 38.2439 13.1756 39.9982 13.1671Z" fill="white"/>
<path d="M55.3055 49.8254C55.3055 58.821 48.4538 66.1087 39.9982 66.1087C31.5426 66.1087 24.6909 58.821 24.6909 49.8254C24.6909 43.8697 31.4066 32.7662 35.9384 25.9465C36.3711 25.2616 36.9701 24.6974 37.6796 24.3064C38.3891 23.9154 39.186 23.7103 39.9962 23.7103C40.8063 23.7103 41.6032 23.9154 42.3128 24.3064C43.0223 24.6974 43.6213 25.2616 44.054 25.9465C48.5898 32.7662 55.3055 43.8697 55.3055 49.8254Z" fill="white"/>
<path d="M58.1773 5.14741C57.3915 4.74878 56.4802 4.67641 55.6413 4.94605C54.8025 5.21568 54.1039 5.80552 53.6976 6.58734C53.4984 6.97298 53.378 7.39438 53.3432 7.82701C53.3085 8.25965 53.3602 8.69486 53.4954 9.10732C53.6305 9.51977 53.8463 9.90122 54.1303 10.2294C54.4143 10.5577 54.7607 10.8261 55.1495 11.0191C60.6102 13.7444 65.2037 17.9371 68.4147 23.127C71.6257 28.3169 73.3273 34.2988 73.3287 40.4018C73.3316 45.7617 72.0098 51.0393 69.4808 55.7651C70.3235 51.3256 70.1318 46.7516 68.9206 42.3981C67.7095 38.0446 65.5115 34.0288 62.4972 30.6622C61.9049 30.0089 61.0791 29.6152 60.1986 29.5665C59.3182 29.5179 58.454 29.8181 57.7934 30.4023C57.4657 30.6864 57.1978 31.0329 57.0053 31.4216C56.8127 31.8103 56.6994 32.2333 56.6719 32.6662C56.6443 33.0991 56.7031 33.5331 56.8448 33.943C56.9866 34.353 57.2084 34.7306 57.4974 35.054C61.2507 39.2556 63.3265 44.6915 63.3291 50.3253C63.3291 62.6608 53.5096 72.7683 41.1981 73.3843C40.7981 73.3843 40.3982 73.4163 39.9982 73.4163C39.5982 73.4163 39.1982 73.4163 38.7982 73.3843C26.4868 72.7683 16.6672 62.6608 16.6672 50.3253C16.6432 45.0629 18.452 39.9562 21.783 35.882C22.0564 35.5449 22.26 35.1569 22.3821 34.7405C22.5043 34.3241 22.5425 33.8875 22.4944 33.4562C22.4464 33.0249 22.3132 32.6074 22.1025 32.228C21.8918 31.8487 21.6078 31.5149 21.267 31.2462C20.5765 30.6977 19.6976 30.4434 18.8208 30.5385C17.9441 30.6336 17.1401 31.0704 16.5832 31.7542C13.8819 35.074 11.9394 38.9445 10.8919 43.0943C9.8444 47.2442 9.71731 51.5729 10.5195 55.7771C7.98549 51.0488 6.66215 45.7664 6.6677 40.4018C6.66857 34.2987 8.36999 28.3166 11.5811 23.1266C14.7922 17.9366 19.3859 13.744 24.8469 11.0191C25.236 10.8265 25.5828 10.5583 25.8671 10.2301C26.1514 9.90197 26.3674 9.52045 26.5026 9.10785C26.6378 8.69525 26.6894 8.25985 26.6544 7.82708C26.6194 7.39432 26.4985 6.97286 26.2988 6.58734C25.8932 5.80475 25.1947 5.21422 24.3555 4.94449C23.5164 4.67476 22.6046 4.7477 21.819 5.14741C15.2652 8.41551 9.75179 13.4455 5.8977 19.6728C2.0436 25.9001 0.00129839 33.0783 0 40.4018C0 62.2328 17.9432 80 39.9982 80C62.0532 80 79.9964 62.2448 79.9964 40.4018C79.9946 33.0784 77.9521 25.9004 74.0981 19.6732C70.244 13.4459 64.7309 8.41588 58.1773 5.14741Z" fill="white"/>
</svg>
