<svg xmlns="http://www.w3.org/2000/svg" xmlns:xlink="http://www.w3.org/1999/xlink" width="776" height="552" fill="none" xmlns:v="https://vecta.io/nano"><g stroke="#cecece" stroke-miterlimit="10"><use xlink:href="#B"/><use xlink:href="#C"/><use xlink:href="#D"/><use xlink:href="#E"/><use xlink:href="#F"/><use xlink:href="#G"/><use xlink:href="#H"/><use xlink:href="#I"/><use xlink:href="#J"/><use xlink:href="#C" y="-220"/><path d="M553.5 21.422c22.894.266 41.375 18.746 41.64 41.64h-20.727A21.4 21.4 0 0 0 553.5 42.149V21.422z"/><path d="M553.5 21.413A21.4 21.4 0 0 0 574.413.5h20.727c-.265 22.894-18.746 41.375-41.64 41.64V21.413zM642.808.5c-.265 22.894-18.746 41.375-41.64 41.64V21.413A21.4 21.4 0 0 0 622.081.5h20.727z"/><use xlink:href="#K"/><use xlink:href="#H" y="-220"/><path d="M553.5 89.817V69.09c22.894.266 41.375 18.746 41.64 41.641h-20.727A21.4 21.4 0 0 0 553.5 89.817z"/><use xlink:href="#B" y="220"/><use xlink:href="#C" y="220"/><use xlink:href="#D" y="220"/><use xlink:href="#E" y="220"/><use xlink:href="#F" y="220"/><use xlink:href="#G" y="220"/><use xlink:href="#H" y="220"/><use xlink:href="#L"/><use xlink:href="#B" x="111" y="111"/><use xlink:href="#M"/><use xlink:href="#D" x="111" y="111"/><use xlink:href="#E" x="111" y="111"/><use xlink:href="#F" x="111" y="111"/><use xlink:href="#G" x="111" y="111"/><use xlink:href="#H" x="111" y="111"/><use xlink:href="#N"/><use xlink:href="#B" x="111" y="-110"/><use xlink:href="#M" y="-221"/><use xlink:href="#D" x="111" y="-110"/><use xlink:href="#E" x="111" y="-110"/><use xlink:href="#F" x="111" y="-110"/><use xlink:href="#G" x="111" y="-110"/><use xlink:href="#H" x="111" y="-110"/><use xlink:href="#O"/><use xlink:href="#B" x="-553" y="111"/><use xlink:href="#P"/><path d="M.5 352.421c22.894.266 41.375 18.747 41.64 41.641H21.413A21.4 21.4 0 0 0 .5 373.149v-20.728z"/><path d="M.5 352.413A21.4 21.4 0 0 0 21.413 331.5H42.14c-.266 22.894-18.746 41.375-41.64 41.64v-20.727zM89.808 331.5c-.266 22.894-18.746 41.375-41.64 41.64v-20.727A21.4 21.4 0 0 0 69.081 331.5h20.727z"/><use xlink:href="#G" x="-553" y="111"/><use xlink:href="#Q"/><path d="M.5 420.817V400.09c22.894.265 41.375 18.746 41.64 41.64H21.413A21.4 21.4 0 0 0 .5 420.817z"/><use xlink:href="#B" x="-553" y="-110"/><use xlink:href="#P" y="-221"/><path d="M.5 131.421c22.894.266 41.375 18.747 41.64 41.641H21.413A21.4 21.4 0 0 0 .5 152.149v-20.728z"/><path d="M.5 131.413A21.4 21.4 0 0 0 21.413 110.5H42.14c-.266 22.894-18.746 41.375-41.64 41.64v-20.727zM89.808 110.5c-.266 22.894-18.746 41.375-41.64 41.64v-20.727A21.4 21.4 0 0 0 69.081 110.5h20.727z"/><use xlink:href="#G" x="-553" y="-110"/><use xlink:href="#Q" y="-221"/><path d="M.5 199.817V179.09c22.894.265 41.375 18.746 41.64 41.64H21.413A21.4 21.4 0 0 0 .5 199.817z"/><use xlink:href="#J" x="-221"/><use xlink:href="#R"/><path d="M332.5 21.422c22.894.266 41.375 18.746 41.64 41.64h-20.727A21.4 21.4 0 0 0 332.5 42.149V21.422z"/><path d="M332.5 21.413A21.4 21.4 0 0 0 353.413.5h20.727c-.265 22.894-18.746 41.375-41.64 41.64V21.413zM421.808.5c-.265 22.894-18.746 41.375-41.64 41.64V21.413A21.4 21.4 0 0 0 401.081.5h20.727z"/><use xlink:href="#K" x="-221"/><use xlink:href="#H" x="-221" y="-220"/><path d="M332.5 89.817V69.09c22.894.266 41.375 18.746 41.64 41.641h-20.727A21.4 21.4 0 0 0 332.5 89.817z"/><use xlink:href="#B" x="-221" y="220"/><use xlink:href="#R" y="440"/><use xlink:href="#D" x="-221" y="220"/><use xlink:href="#E" x="-221" y="220"/><use xlink:href="#F" x="-221" y="220"/><use xlink:href="#G" x="-221" y="220"/><use xlink:href="#H" x="-221" y="220"/><use xlink:href="#L" x="-221"/><use xlink:href="#B" x="-110"/><use xlink:href="#S"/><use xlink:href="#D" x="-110"/><use xlink:href="#E" x="-110"/><use xlink:href="#F" x="-110"/><use xlink:href="#G" x="-110"/><use xlink:href="#H" x="-110"/><use xlink:href="#I" x="-110"/><use xlink:href="#B" x="-110" y="-110"/><use xlink:href="#S" y="-110"/><use xlink:href="#D" x="-110" y="-110"/><use xlink:href="#E" x="-110" y="-110"/><use xlink:href="#F" x="-110" y="-110"/><use xlink:href="#G" x="-110" y="-110"/><use xlink:href="#H" x="-110" y="-110"/><use xlink:href="#O" x="-221"/><use xlink:href="#B" x="-110" y="111"/><use xlink:href="#S" y="111"/><use xlink:href="#D" x="-110" y="111"/><use xlink:href="#E" x="-110" y="111"/><use xlink:href="#F" x="-110" y="111"/><use xlink:href="#G" x="-110" y="111"/><use xlink:href="#H" x="-110" y="111"/><use xlink:href="#N" x="-221"/><use xlink:href="#B" x="-331" y="-110"/><use xlink:href="#T"/><use xlink:href="#D" x="-331" y="-110"/><use xlink:href="#E" x="-331" y="-110"/><use xlink:href="#F" x="-331" y="-110"/><use xlink:href="#G" x="-331" y="-110"/><use xlink:href="#H" x="-331" y="-110"/><use xlink:href="#O" x="-442"/><use xlink:href="#B" x="-331" y="111"/><use xlink:href="#T" y="221"/><use xlink:href="#D" x="-331" y="111"/><use xlink:href="#E" x="-331" y="111"/><use xlink:href="#F" x="-331" y="111"/><use xlink:href="#G" x="-331" y="111"/><use xlink:href="#H" x="-331" y="111"/><use xlink:href="#N" x="-442"/><use xlink:href="#J" x="-442"/><use xlink:href="#U"/><path d="M111.5 21.422c22.894.266 41.375 18.746 41.64 41.64h-20.727A21.4 21.4 0 0 0 111.5 42.149V21.422z"/><path d="M111.5 21.413A21.4 21.4 0 0 0 132.413.5h20.727c-.265 22.894-18.746 41.375-41.64 41.64V21.413zM200.808.5c-.265 22.894-18.746 41.375-41.64 41.64V21.413A21.4 21.4 0 0 0 180.081.5h20.727z"/><use xlink:href="#K" x="-442"/><use xlink:href="#H" x="-442" y="-220"/><path d="M111.5 89.817V69.09c22.894.266 41.375 18.746 41.64 41.641h-20.727A21.4 21.4 0 0 0 111.5 89.817z"/><use xlink:href="#B" x="-442" y="220"/><use xlink:href="#U" y="440"/><use xlink:href="#D" x="-442" y="220"/><use xlink:href="#E" x="-442" y="220"/><use xlink:href="#F" x="-442" y="220"/><use xlink:href="#G" x="-442" y="220"/><use xlink:href="#H" x="-442" y="220"/><use xlink:href="#L" x="-442"/><use xlink:href="#B" x="-331"/><use xlink:href="#T" y="110"/><use xlink:href="#D" x="-331"/><use xlink:href="#E" x="-331"/><use xlink:href="#F" x="-331"/><use xlink:href="#G" x="-331"/><use xlink:href="#H" x="-331"/><use xlink:href="#I" x="-331"/><use xlink:href="#B" x="-441"/><path d="M201.817 330.73H181.09c.265-22.894 18.746-41.375 41.64-41.64v20.727a21.4 21.4 0 0 0-20.913 20.913z"/><use xlink:href="#D" x="-441"/><use xlink:href="#E" x="-441"/><use xlink:href="#F" x="-441"/><use xlink:href="#G" x="-441"/><use xlink:href="#H" x="-441"/><use xlink:href="#I" x="-441"/></g><defs ><path id="B" d="M663.73 309.808c-22.894-.265-41.375-18.746-41.64-41.64h20.727a21.4 21.4 0 0 0 20.913 20.913v20.727z"/><path id="C" d="M642.817 330.73H622.09c.265-22.894 18.746-41.375 41.64-41.64v20.727a21.4 21.4 0 0 0-20.913 20.913z"/><path id="D" d="M553.5 241.421c22.894.266 41.375 18.747 41.64 41.641h-20.727a21.4 21.4 0 0 0-20.913-20.913v-20.728z"/><path id="E" d="M553.5 241.413a21.4 21.4 0 0 0 20.913-20.913h20.727c-.265 22.894-18.746 41.375-41.64 41.64v-20.727z"/><path id="F" d="M642.808 220.5c-.265 22.894-18.746 41.375-41.64 41.64v-20.727a21.4 21.4 0 0 0 20.913-20.913h20.727z"/><path id="G" d="M642.817 220.5a21.4 21.4 0 0 0 20.913 20.913v20.727c-22.894-.265-41.375-18.746-41.64-41.64h20.727z"/><path id="H" d="M574.421 330.73c.266-22.894 18.747-41.375 41.641-41.64v20.727a21.4 21.4 0 0 0-20.913 20.913h-20.728z"/><path id="I" d="M553.5 309.817V289.09c22.894.265 41.375 18.746 41.64 41.64h-20.727a21.4 21.4 0 0 0-20.913-20.913z"/><path id="J" d="M663.73 89.808c-22.894-.266-41.375-18.746-41.64-41.64h20.727a21.4 21.4 0 0 0 20.913 20.913v20.727z"/><path id="K" d="M642.817.5a21.4 21.4 0 0 0 20.913 20.913V42.14c-22.894-.266-41.375-18.746-41.64-41.64h20.727z"/><path id="L" d="M553.5 529.817V509.09c22.894.265 41.375 18.746 41.64 41.64h-20.727a21.4 21.4 0 0 0-20.913-20.913z"/><path id="M" d="M753.817 441.73H733.09c.265-22.894 18.746-41.375 41.64-41.64v20.727a21.4 21.4 0 0 0-20.913 20.913z"/><path id="N" d="M664.5 420.817V400.09c22.894.265 41.375 18.746 41.64 41.64h-20.727a21.4 21.4 0 0 0-20.913-20.913z"/><path id="O" d="M664.5 199.817V179.09c22.894.265 41.375 18.746 41.64 41.64h-20.727a21.4 21.4 0 0 0-20.913-20.913z"/><path id="P" d="M89.817 441.73H69.09c.265-22.894 18.746-41.375 41.64-41.64v20.727a21.4 21.4 0 0 0-20.913 20.913z"/><path id="Q" d="M21.422 441.73c.266-22.894 18.746-41.375 41.64-41.64v20.727a21.4 21.4 0 0 0-20.913 20.913H21.422z"/><path id="R" d="M421.817 110.73H401.09c.265-22.894 18.746-41.375 41.64-41.64v20.727a21.4 21.4 0 0 0-20.913 20.913z"/><path id="S" d="M532.817 330.73H512.09c.265-22.894 18.746-41.375 41.64-41.64v20.727a21.4 21.4 0 0 0-20.913 20.913z"/><path id="T" d="M311.817 220.73H291.09c.265-22.894 18.746-41.375 41.64-41.64v20.727a21.4 21.4 0 0 0-20.913 20.913z"/><path id="U" d="M200.817 110.73H180.09c.265-22.894 18.746-41.375 41.64-41.64v20.727a21.4 21.4 0 0 0-20.913 20.913z"/></defs></svg>