<svg xmlns="http://www.w3.org/2000/svg" width="154" height="154" fill="none" xmlns:v="https://vecta.io/nano">
<g fill-rule="evenodd">
<path d="M117 154c0-20.448 16.552-37 37-37v18.85c-10.038 0-18.15 8.112-18.15 18.15H117z" fill="url(#A)"/>
<path d="M37 0c0 20.448-16.551 37-37 37V18.15c10.038 0 18.15-8.112 18.15-18.15H37z" fill="url(#B)"/>
<path d="M0 117c20.448 0 37 16.552 37 37H18.15c0-10.038-8.112-18.15-18.15-18.15V117z" fill="url(#C)"/>
<path d="M154 37c-20.448 0-37-16.551-37-37h18.85c0 10.038 8.112 18.15 18.15 18.15V37z" fill="url(#D)"/>
</g>
<defs>
<linearGradient id="A" x1="123.652" y1="154" x2="151.455" y2="120.636" gradientUnits="userSpaceOnUse"><stop offset=".018" stop-color="#5784f7"/><stop offset=".859" stop-color="#08ffc4"/></linearGradient>
<linearGradient id="B" x1="30.348" y1="0" x2="2.545" y2="33.364" gradientUnits="userSpaceOnUse"><stop offset=".018" stop-color="#5784f7"/><stop offset=".859" stop-color="#08ffc4"/></linearGradient>
<linearGradient id="C" x1="0" y1="123.652" x2="33.364" y2="151.455" gradientUnits="userSpaceOnUse"><stop offset=".018" stop-color="#5784f7"/><stop offset=".859" stop-color="#08ffc4"/></linearGradient>
<linearGradient id="D" x1="154" y1="30.348" x2="120.636" y2="2.545" gradientUnits="userSpaceOnUse"><stop offset=".018" stop-color="#5784f7"/><stop offset=".859" stop-color="#08ffc4"/></linearGradient>
</defs>
</svg>