<svg xmlns="http://www.w3.org/2000/svg" xmlns:xlink="http://www.w3.org/1999/xlink" width="1500" height="500" fill="none" xmlns:v="https://vecta.io/nano"><style><![CDATA[.B{stroke-miterlimit:10}.C{stroke:#5784f7}.D{fill-rule:evenodd}.E{fill:#08ffc4}.F{stroke:#08ffc4}.G{fill:#5784f7}]]></style><g clip-path="url(#g)"><path fill="#031749" d="M0 0h1500v500H0z"/><g class="B C"><use xlink:href="#h"/><use xlink:href="#i"/><path d="M969.787 237.606c0 17.482 14.128 31.611 31.613 31.611v32.83c-35.616 0-64.443-28.827-64.443-64.441h32.83z"/><path d="M936.957 333.658c0-35.614 28.827-64.441 64.443-64.441v32.83c-17.484 0-31.613 14.129-31.613 31.611h-32.83z"/><use xlink:href="#j"/><use xlink:href="#k"/><use xlink:href="#l"/><path d="M1001.4 230.012c-35.616 0-64.443-28.827-64.443-64.441h32.83c0 17.483 14.128 31.612 31.613 31.612v32.829z"/></g><path d="M864.923 93.8839C864.923 76.401 850.794 62.2724 833.311 62.2724V29.4428C868.925 29.4428 897.752 58.2698 897.752 93.8839H864.923Z" stroke="url(#A)" class="B"/><path d="M897.752 -2.16872C897.752 33.4453 868.925 62.2723 833.311 62.2723V29.4427C850.794 29.4427 864.923 15.3141 864.923 -2.16872H897.752Z" stroke="url(#B)" class="B"/><path d="M969.787 69.8654C969.787 87.3482 983.915 101.477 1001.4 101.477V134.306C965.784 134.306 936.957 105.479 936.957 69.8654H969.787Z" stroke="url(#C)" class="B"/><path d="M936.957 165.919C936.957 130.305 965.784 101.478 1001.4 101.478V134.307C983.916 134.307 969.787 148.436 969.787 165.919H936.957Z" stroke="url(#D)" class="B"/><path d="M929.364 134.307C911.881 134.307 897.752 148.436 897.752 165.919H864.923C864.923 130.305 893.75 101.478 929.364 101.478V134.307Z" stroke="url(#E)" class="B"/><path d="M833.311 101.478C868.925 101.478 897.752 130.305 897.752 165.919H864.923C864.923 148.436 850.794 134.307 833.311 134.307V101.478Z" stroke="url(#F)" class="B"/><path d="M905.346 29.4427C922.829 29.4427 936.957 15.3141 936.957 -2.16872H969.787C969.787 33.4453 940.96 62.2723 905.346 62.2723V29.4427Z" stroke="url(#G)" class="B"/><path d="M1001.4 62.2723C965.784 62.2723 936.957 33.4453 936.957 -2.16872H969.787C969.787 15.3141 983.915 29.4427 1001.4 29.4427V62.2723Z" stroke="url(#H)" class="B"/><g class="C B"><use xlink:href="#m"/><use xlink:href="#n"/><path d="M1306.19 237.606c0 17.482 14.13 31.611 31.61 31.611v32.83c-35.61 0-64.44-28.827-64.44-64.441h32.83z"/><use xlink:href="#o"/><use xlink:href="#p"/><use xlink:href="#q"/><use xlink:href="#r"/><use xlink:href="#s"/></g><g class="D E"><use xlink:href="#t"/><use xlink:href="#u"/><use xlink:href="#v"/><use xlink:href="#w"/><use xlink:href="#x"/><use xlink:href="#y"/><use xlink:href="#z"/><use xlink:href="#AA"/></g><g class="B F"><path d="M1201.32 429.364c0-17.483-14.12-31.612-31.61-31.612v-32.829c35.62 0 64.44 28.827 64.44 64.441h-32.83z"/><path d="M1234.15 333.311c0 35.614-28.82 64.441-64.44 64.441v-32.829c17.49 0 31.61-14.129 31.61-31.612h32.83z"/><use xlink:href="#AB"/><path d="M1273.36 501.398c0-35.614 28.83-64.441 64.44-64.441v32.83c-17.48 0-31.61 14.129-31.61 31.611h-32.83zm-7.6-31.611c-17.48 0-31.61 14.129-31.61 31.611h-32.83c0-35.614 28.83-64.441 64.44-64.441v32.83z"/><path d="M1169.71 436.957c35.62 0 64.44 28.827 64.44 64.441h-32.83c0-17.482-14.12-31.611-31.61-31.611v-32.83zm72.04-72.034c17.48 0 31.61-14.129 31.61-31.612h32.83c0 35.614-28.83 64.441-64.44 64.441v-32.829z"/><path d="M1337.8 397.752c-35.61 0-64.44-28.827-64.44-64.441h32.83c0 17.483 14.13 31.612 31.61 31.612v32.829z"/></g><g class="D E"><path d="M24.841 93.884c0-17.483-14.129-31.611-31.611-31.611v-32.83c35.614 0 64.441 28.827 64.441 64.441H24.841z"/><path d="M57.671-2.169c0 35.614-28.827 64.441-64.441 64.441v-32.83c17.483 0 31.611-14.129 31.611-31.611H57.67zm72.034 72.034c0 17.483 14.129 31.612 31.612 31.612v32.829c-35.614 0-64.441-28.827-64.441-64.441h32.829z"/><path d="M96.876 165.919c0-35.614 28.827-64.441 64.441-64.441v32.829c-17.483 0-31.612 14.129-31.612 31.612H96.876zm-7.594-31.612c-17.483 0-31.612 14.129-31.612 31.612H24.84c0-35.614 28.827-64.441 64.441-64.441v32.829z"/><path d="M-6.77 101.478c35.614 0 64.441 28.827 64.441 64.441h-32.83c0-17.483-14.129-31.612-31.611-31.612v-32.829zm72.034-72.035c17.483 0 31.612-14.129 31.612-31.611h32.829c0 35.614-28.827 64.441-64.441 64.441v-32.83z"/><path d="M161.317 62.272c-35.614 0-64.441-28.827-64.441-64.441h32.829c0 17.483 14.129 31.611 31.612 31.611v32.83z"/></g><g class="B F"><path d="M24.841 429.364c0-17.483-14.129-31.612-31.611-31.612v-32.829c35.614 0 64.441 28.827 64.441 64.441H24.841z"/><path d="M57.671 333.311c0 35.614-28.827 64.441-64.441 64.441v-32.829c17.483 0 31.611-14.129 31.611-31.612H57.67zm72.034 72.035c0 17.483 14.129 31.611 31.612 31.611v32.83c-35.614 0-64.441-28.827-64.441-64.441h32.829z"/><path d="M96.876 501.398c0-35.614 28.827-64.441 64.441-64.441v32.83c-17.483 0-31.612 14.129-31.612 31.611H96.876zm-7.594-31.611c-17.483 0-31.612 14.129-31.612 31.611H24.84c0-35.614 28.827-64.441 64.441-64.441v32.83z"/><path d="M-6.77 436.957c35.614 0 64.441 28.827 64.441 64.441H24.841c0-17.482-14.129-31.611-31.611-31.611v-32.83z"/><use xlink:href="#AC"/><use xlink:href="#AD"/></g><g class="D G"><path d="M361.242 261.624c0-17.483-14.129-31.612-31.611-31.612v-32.829c35.614 0 64.441 28.827 64.441 64.441h-32.83z"/><path d="M394.072 165.571c0 35.614-28.827 64.441-64.441 64.441v-32.829c17.482 0 31.611-14.129 31.611-31.612h32.83zm72.034 72.035c0 17.482 14.129 31.611 31.612 31.611v32.83c-35.614 0-64.441-28.827-64.441-64.441h32.829z"/><path d="M433.277 333.658c0-35.614 28.827-64.441 64.441-64.441v32.83c-17.483 0-31.612 14.129-31.612 31.611h-32.829zm-7.594-31.611c-17.483 0-31.611 14.129-31.611 31.611h-32.83c0-35.614 28.827-64.441 64.441-64.441v32.83z"/><path d="M329.631 269.217c35.614 0 64.441 28.827 64.441 64.441h-32.83c0-17.482-14.129-31.611-31.611-31.611v-32.83zm72.034-72.034c17.483 0 31.612-14.129 31.612-31.612h32.829c0 35.614-28.827 64.441-64.441 64.441v-32.829z"/><path d="M497.718 230.012c-35.614 0-64.441-28.827-64.441-64.441h32.829c0 17.483 14.129 31.612 31.612 31.612v32.829z"/></g><g class="B C"><path d="M1033.12 93.884c0-17.483-14.13-31.611-31.61-31.611v-32.83c35.62 0 64.44 28.827 64.44 64.441h-32.83z"/><path d="M1065.95-2.169c0 35.614-28.82 64.441-64.44 64.441v-32.83c17.48 0 31.61-14.129 31.61-31.611h32.83zm72.04 72.034c0 17.483 14.13 31.612 31.61 31.612v32.829c-35.62 0-64.44-28.827-64.44-64.441h32.83z"/><path d="M1105.16 165.919c0-35.614 28.82-64.441 64.44-64.441v32.829c-17.48 0-31.61 14.129-31.61 31.612h-32.83zm-7.6-31.612c-17.48 0-31.61 14.129-31.61 31.612h-32.83c0-35.614 28.83-64.441 64.44-64.441v32.829z"/><path d="M1001.51 101.478c35.62 0 64.44 28.827 64.44 64.441h-32.83c0-17.483-14.13-31.612-31.61-31.612v-32.829zm72.04-72.035c17.48 0 31.61-14.129 31.61-31.611h32.83c0 35.614-28.83 64.441-64.44 64.441v-32.83z"/><path d="M1169.6 62.272c-35.62 0-64.44-28.827-64.44-64.441h32.83c0 17.483 14.13 31.611 31.61 31.611v32.83z"/></g><g class="D G"><path d="M1033.12 429.364c0-17.483-14.13-31.612-31.61-31.612v-32.829c35.62 0 64.44 28.827 64.44 64.441h-32.83z"/><path d="M1065.95 333.311c0 35.614-28.82 64.441-64.44 64.441v-32.829c17.48 0 31.61-14.129 31.61-31.612h32.83zm72.04 72.035c0 17.483 14.13 31.611 31.61 31.611v32.83c-35.62 0-64.44-28.827-64.44-64.441h32.83z"/><path d="M1105.16 501.398c0-35.614 28.82-64.441 64.44-64.441v32.83c-17.48 0-31.61 14.129-31.61 31.611h-32.83zm-7.6-31.611c-17.48 0-31.61 14.129-31.61 31.611h-32.83c0-35.614 28.83-64.441 64.44-64.441v32.83z"/><path d="M1001.51 436.957c35.62 0 64.44 28.827 64.44 64.441h-32.83c0-17.482-14.13-31.611-31.61-31.611v-32.83zm72.04-72.034c17.48 0 31.61-14.129 31.61-31.612h32.83c0 35.614-28.83 64.441-64.44 64.441v-32.829z"/><path d="M1169.6 397.752c-35.62 0-64.44-28.827-64.44-64.441h32.83c0 17.483 14.13 31.612 31.61 31.612v32.829z"/></g><g class="B C"><path d="M1369.52 93.884c0-17.483-14.12-31.611-31.61-31.611v-32.83c35.62 0 64.44 28.827 64.44 64.441h-32.83z"/><path d="M1402.35-2.169c0 35.614-28.82 64.441-64.44 64.441v-32.83c17.49 0 31.61-14.129 31.61-31.611h32.83zm72.04 72.034c0 17.483 14.13 31.612 31.61 31.612v32.829c-35.61 0-64.44-28.827-64.44-64.441h32.83z"/><path d="M1441.56 165.919c0-35.614 28.83-64.441 64.44-64.441v32.829c-17.48 0-31.61 14.129-31.61 31.612h-32.83zm-7.59-31.612c-17.49 0-31.62 14.129-31.62 31.612h-32.83c0-35.614 28.83-64.441 64.45-64.441v32.829z"/><path d="M1337.91 101.478c35.62 0 64.44 28.827 64.44 64.441h-32.83c0-17.483-14.12-31.612-31.61-31.612v-32.829zm72.04-72.035c17.48 0 31.61-14.129 31.61-31.611h32.83c0 35.614-28.83 64.441-64.44 64.441v-32.83z"/><path d="M1506 62.272c-35.61 0-64.44-28.827-64.44-64.441h32.83c0 17.483 14.13 31.611 31.61 31.611v32.83z"/></g><g class="D E"><path d="M1369.52 429.364c0-17.483-14.12-31.612-31.61-31.612v-32.829c35.62 0 64.44 28.827 64.44 64.441h-32.83z"/><path d="M1402.35 333.311c0 35.614-28.82 64.441-64.44 64.441v-32.829c17.49 0 31.61-14.129 31.61-31.612h32.83zm72.04 72.035c0 17.483 14.13 31.611 31.61 31.611v32.83c-35.61 0-64.44-28.827-64.44-64.441h32.83z"/><path d="M1441.56 501.398c0-35.614 28.83-64.441 64.44-64.441v32.83c-17.48 0-31.61 14.129-31.61 31.611h-32.83zm-7.59-31.611c-17.49 0-31.62 14.129-31.62 31.611h-32.83c0-35.614 28.83-64.441 64.45-64.441v32.83z"/><path d="M1337.91 436.957c35.62 0 64.44 28.827 64.44 64.441h-32.83c0-17.482-14.12-31.611-31.61-31.611v-32.83zm72.04-72.034c17.48 0 31.61-14.129 31.61-31.612h32.83c0 35.614-28.83 64.441-64.44 64.441v-32.829z"/><path d="M1506 397.752c-35.61 0-64.44-28.827-64.44-64.441h32.83c0 17.483 14.13 31.612 31.61 31.612v32.829z"/></g><g class="B"><path d="M193.041 261.624C193.041 244.141 178.913 230.012 161.43 230.012V197.183C197.044 197.183 225.871 226.01 225.871 261.624H193.041Z" stroke="url(#I)"/><path d="M225.871 165.571C225.871 201.185 197.044 230.012 161.43 230.012V197.183C178.913 197.183 193.041 183.054 193.041 165.571H225.871Z" stroke="url(#J)"/><path d="M297.906 237.606C297.906 255.088 312.034 269.217 329.517 269.217V302.047C293.903 302.047 265.076 273.22 265.076 237.606H297.906Z" stroke="url(#K)"/><path d="M265.076 333.658C265.076 298.044 293.903 269.217 329.517 269.217V302.047C312.034 302.047 297.906 316.176 297.906 333.658H265.076Z" stroke="url(#L)"/><path d="M257.483 302.047C240 302.047 225.871 316.176 225.871 333.658H193.042C193.042 298.044 221.868 269.217 257.483 269.217V302.047Z" stroke="url(#M)"/><path d="M161.43 269.217C197.044 269.217 225.871 298.044 225.871 333.658H193.041C193.041 316.176 178.913 302.047 161.43 302.047V269.217Z" stroke="url(#N)"/><path d="M233.464 197.183C250.947 197.183 265.076 183.054 265.076 165.571H297.905C297.905 201.185 269.079 230.012 233.464 230.012V197.183Z" stroke="url(#O)"/><path d="M329.517 230.012C293.903 230.012 265.076 201.185 265.076 165.571H297.906C297.906 183.054 312.034 197.183 329.517 197.183V230.012Z" stroke="url(#P)"/><g class="C"><path d="M193.041 93.884c0-17.483-14.128-31.611-31.611-31.611v-32.83c35.614 0 64.441 28.827 64.441 64.441h-32.83z"/><path d="M225.871-2.169c0 35.614-28.827 64.441-64.441 64.441v-32.83c17.483 0 31.611-14.129 31.611-31.611h32.83zm72.035 72.034c0 17.483 14.128 31.612 31.611 31.612v32.829c-35.614 0-64.441-28.827-64.441-64.441h32.83z"/><path d="M265.076 165.919c0-35.614 28.827-64.441 64.441-64.441v32.829c-17.483 0-31.611 14.129-31.611 31.612h-32.83zm-7.593-31.612c-17.483 0-31.612 14.129-31.612 31.612h-32.829c0-35.614 28.826-64.441 64.441-64.441v32.829z"/><path d="M161.43 101.478c35.614 0 64.441 28.827 64.441 64.441h-32.83c0-17.483-14.128-31.612-31.611-31.612v-32.829zm72.034-72.035c17.483 0 31.612-14.129 31.612-31.611h32.829c0 35.614-28.826 64.441-64.441 64.441v-32.83z"/><path d="M329.517 62.272c-35.614 0-64.441-28.827-64.441-64.441h32.83c0 17.483 14.128 31.611 31.611 31.611v32.83z"/></g></g><g class="D G"><use xlink:href="#AE"/><use xlink:href="#AF"/><use xlink:href="#AG"/><use xlink:href="#AH"/><path d="M257.483 469.787c-17.483 0-31.612 14.129-31.612 31.611h-32.829c0-35.614 28.826-64.441 64.441-64.441v32.83z"/><use xlink:href="#AI"/><path d="M233.464 364.923c17.483 0 31.612-14.129 31.612-31.612h32.829c0 35.614-28.826 64.441-64.441 64.441v-32.829z"/><use xlink:href="#AJ"/></g><g class="B C"><path d="M529.443 261.624c0-17.483-14.129-31.612-31.612-31.612v-32.829c35.614 0 64.441 28.827 64.441 64.441h-32.829z"/><path d="M562.272 165.571c0 35.614-28.827 64.441-64.441 64.441v-32.829c17.483 0 31.612-14.129 31.612-31.612h32.829zm72.035 72.035c0 17.482 14.129 31.611 31.611 31.611v32.83c-35.614 0-64.441-28.827-64.441-64.441h32.83z"/><path d="M601.477 333.658c0-35.614 28.827-64.441 64.441-64.441v32.83c-17.482 0-31.611 14.129-31.611 31.611h-32.83zm-7.593-31.611c-17.483 0-31.612 14.129-31.612 31.611h-32.829c0-35.614 28.827-64.441 64.441-64.441v32.83z"/><path d="M497.831 269.217c35.614 0 64.441 28.827 64.441 64.441h-32.829c0-17.482-14.129-31.611-31.612-31.611v-32.83zm72.035-72.034c17.483 0 31.611-14.129 31.611-31.612h32.83c0 35.614-28.827 64.441-64.441 64.441v-32.829z"/><path d="M665.918 230.012c-35.614 0-64.441-28.827-64.441-64.441h32.83c0 17.483 14.129 31.612 31.611 31.612v32.829z"/></g><g class="F B"><path d="M529.443 93.884c0-17.483-14.129-31.611-31.612-31.611v-32.83c35.614 0 64.441 28.827 64.441 64.441h-32.829z"/><path d="M562.272-2.169c0 35.614-28.827 64.441-64.441 64.441v-32.83c17.483 0 31.612-14.129 31.612-31.611h32.829zm72.035 72.034c0 17.483 14.129 31.612 31.611 31.612v32.829c-35.614 0-64.441-28.827-64.441-64.441h32.83z"/><path d="M601.477 165.919c0-35.614 28.827-64.441 64.441-64.441v32.829c-17.482 0-31.611 14.129-31.611 31.612h-32.83zm-7.593-31.612c-17.483 0-31.612 14.129-31.612 31.612h-32.829c0-35.614 28.827-64.441 64.441-64.441v32.829z"/><path d="M497.831 101.478c35.614 0 64.441 28.827 64.441 64.441h-32.829c0-17.483-14.129-31.612-31.612-31.612v-32.829zm72.035-72.035c17.483 0 31.611-14.129 31.611-31.611h32.83c0 35.614-28.827 64.441-64.441 64.441v-32.83z"/><path d="M665.918 62.272c-35.614 0-64.441-28.827-64.441-64.441h32.83c0 17.483 14.129 31.611 31.611 31.611v32.83z"/></g><path d="M529.443 429.364C529.443 411.881 515.314 397.752 497.831 397.752V364.923C533.445 364.923 562.272 393.75 562.272 429.364H529.443Z" stroke="url(#Q)" class="B"/><path d="M562.272 333.311C562.272 368.925 533.445 397.752 497.831 397.752V364.923C515.314 364.923 529.443 350.794 529.443 333.311H562.272Z" stroke="url(#R)" class="B"/><path d="M634.307 405.346C634.307 422.829 648.436 436.957 665.918 436.957V469.787C630.304 469.787 601.477 440.96 601.477 405.346H634.307Z" stroke="url(#S)" class="B"/><path d="M601.477 501.398C601.477 465.784 630.304 436.957 665.918 436.957V469.787C648.436 469.787 634.307 483.916 634.307 501.398H601.477Z" stroke="url(#T)" class="B"/><path d="M593.884 469.787C576.401 469.787 562.272 483.916 562.272 501.398H529.443C529.443 465.784 558.27 436.957 593.884 436.957V469.787Z" stroke="url(#U)" class="B"/><path d="M497.831 436.957C533.445 436.957 562.272 465.784 562.272 501.398H529.443C529.443 483.916 515.314 469.787 497.831 469.787V436.957Z" stroke="url(#V)" class="B"/><path d="M569.866 364.923C587.349 364.923 601.477 350.794 601.477 333.311H634.307C634.307 368.925 605.48 397.752 569.866 397.752V364.923Z" stroke="url(#W)" class="B"/><path d="M665.918 397.752C630.304 397.752 601.477 368.925 601.477 333.311H634.307C634.307 350.794 648.436 364.923 665.918 364.923V397.752Z" stroke="url(#X)" class="B"/><g class="C B"><path d="M697.217 429.364c0-17.483-14.128-31.612-31.611-31.612v-32.829c35.614 0 64.441 28.827 64.441 64.441h-32.83z"/><path d="M730.047 333.311c0 35.614-28.827 64.441-64.441 64.441v-32.829c17.483 0 31.611-14.129 31.611-31.612h32.83zm72.035 72.035c0 17.483 14.128 31.611 31.611 31.611v32.83c-35.614 0-64.441-28.827-64.441-64.441h32.83z"/><path d="M769.252 501.398c0-35.614 28.827-64.441 64.441-64.441v32.83c-17.483 0-31.611 14.129-31.611 31.611h-32.83zm-7.594-31.611c-17.482 0-31.611 14.129-31.611 31.611h-32.83c0-35.614 28.827-64.441 64.441-64.441v32.83z"/><path d="M665.606 436.957c35.614 0 64.441 28.827 64.441 64.441h-32.83c0-17.482-14.128-31.611-31.611-31.611v-32.83zm72.034-72.034c17.483 0 31.612-14.129 31.612-31.612h32.829c0 35.614-28.827 64.441-64.441 64.441v-32.829z"/><path d="M833.693 397.752c-35.614 0-64.441-28.827-64.441-64.441h32.83c0 17.483 14.128 31.612 31.611 31.612v32.829z"/></g><g class="D"><path d="M802.252 237.559c0 17.551 14.184 31.735 31.736 31.735v32.958c-35.754 0-64.694-28.939-64.694-64.693h32.958z" fill="url(#Y)"/><path d="M769.294 333.988c0-35.754 28.94-64.694 64.694-64.694v32.958c-17.552 0-31.736 14.184-31.736 31.736h-32.958z" fill="url(#Z)"/><path d="M696.978 261.671c0-17.551-14.184-31.735-31.736-31.735v-32.958c35.754 0 64.694 28.94 64.694 64.693h-32.958z" fill="url(#a)"/><path d="M729.936 165.242c0 35.754-28.94 64.694-64.694 64.694v-32.958c17.552 0 31.736-14.184 31.736-31.736h32.958z" fill="url(#b)"/><path d="M737.559 196.978c17.551 0 31.735-14.184 31.735-31.736h32.958c0 35.754-28.94 64.694-64.693 64.694v-32.958z" fill="url(#c)"/><path d="M833.988 229.936c-35.754 0-64.694-28.94-64.694-64.694h32.958c0 17.552 14.184 31.736 31.736 31.736v32.958z" fill="url(#d)"/><path d="M761.671 302.252c-17.551 0-31.735 14.184-31.735 31.736h-32.958c0-35.754 28.939-64.694 64.693-64.694v32.958z" fill="url(#e)"/><path d="M665.242 269.294c35.754 0 64.694 28.94 64.694 64.694h-32.958c0-17.552-14.184-31.736-31.736-31.736v-32.958z" fill="url(#f)"/></g></g><defs><linearGradient id="A" x1="849.421" y1="89.567" x2="881.642" y2="33.76" xlink:href="#AK"><stop stop-color="#08ffb8"/><stop offset="1" stop-color="#5799f7"/></linearGradient><linearGradient id="B" x1="849.421" y1="57.956" x2="881.642" y2="2.148" xlink:href="#AK"><stop stop-color="#08ffb8"/><stop offset="1" stop-color="#5799f7"/></linearGradient><linearGradient id="C" x1="953.067" y1="129.99" x2="985.288" y2="74.182" xlink:href="#AK"><stop stop-color="#08ffb8"/><stop offset="1" stop-color="#5799f7"/></linearGradient><linearGradient id="D" x1="953.068" y1="161.602" x2="985.288" y2="105.794" xlink:href="#AK"><stop stop-color="#08ffb8"/><stop offset="1" stop-color="#5799f7"/></linearGradient><linearGradient id="E" x1="881.033" y1="161.602" x2="913.254" y2="105.794" xlink:href="#AK"><stop stop-color="#08ffb8"/><stop offset="1" stop-color="#5799f7"/></linearGradient><linearGradient id="F" x1="849.421" y1="161.602" x2="881.642" y2="105.794" xlink:href="#AK"><stop stop-color="#08ffb8"/><stop offset="1" stop-color="#5799f7"/></linearGradient><linearGradient id="G" x1="921.456" y1="57.956" x2="953.676" y2="2.148" xlink:href="#AK"><stop stop-color="#08ffb8"/><stop offset="1" stop-color="#5799f7"/></linearGradient><linearGradient id="H" x1="953.067" y1="57.956" x2="985.288" y2="2.148" xlink:href="#AK"><stop stop-color="#08ffb8"/><stop offset="1" stop-color="#5799f7"/></linearGradient><linearGradient id="I" x1="173.015" y1="261.624" x2="221.439" y2="203.515" xlink:href="#AK"><stop offset=".018" stop-color="#5784f7"/><stop offset=".859" stop-color="#08ffc4"/></linearGradient><linearGradient id="J" x1="173.015" y1="230.012" x2="221.439" y2="171.904" xlink:href="#AK"><stop offset=".018" stop-color="#5784f7"/><stop offset=".859" stop-color="#08ffc4"/></linearGradient><linearGradient id="K" x1="276.662" y1="302.047" x2="325.085" y2="243.938" xlink:href="#AK"><stop offset=".018" stop-color="#5784f7"/><stop offset=".859" stop-color="#08ffc4"/></linearGradient><linearGradient id="L" x1="276.662" y1="333.658" x2="325.085" y2="275.55" xlink:href="#AK"><stop offset=".018" stop-color="#5784f7"/><stop offset=".859" stop-color="#08ffc4"/></linearGradient><linearGradient id="M" x1="204.627" y1="333.658" x2="253.051" y2="275.55" xlink:href="#AK"><stop offset=".018" stop-color="#5784f7"/><stop offset=".859" stop-color="#08ffc4"/></linearGradient><linearGradient id="N" x1="173.015" y1="333.658" x2="221.439" y2="275.55" xlink:href="#AK"><stop offset=".018" stop-color="#5784f7"/><stop offset=".859" stop-color="#08ffc4"/></linearGradient><linearGradient id="O" x1="245.05" y1="230.012" x2="293.473" y2="171.904" xlink:href="#AK"><stop offset=".018" stop-color="#5784f7"/><stop offset=".859" stop-color="#08ffc4"/></linearGradient><linearGradient id="P" x1="276.662" y1="230.012" x2="325.085" y2="171.904" xlink:href="#AK"><stop offset=".018" stop-color="#5784f7"/><stop offset=".859" stop-color="#08ffc4"/></linearGradient><linearGradient id="Q" x1="509.417" y1="429.364" x2="557.84" y2="371.256" xlink:href="#AK"><stop offset=".018" stop-color="#5784f7"/><stop offset=".859" stop-color="#08ffc4"/></linearGradient><linearGradient id="R" x1="509.417" y1="397.752" x2="557.84" y2="339.644" xlink:href="#AK"><stop offset=".018" stop-color="#5784f7"/><stop offset=".859" stop-color="#08ffc4"/></linearGradient><linearGradient id="S" x1="613.063" y1="469.787" x2="661.486" y2="411.679" xlink:href="#AK"><stop offset=".018" stop-color="#5784f7"/><stop offset=".859" stop-color="#08ffc4"/></linearGradient><linearGradient id="T" x1="613.063" y1="501.398" x2="661.486" y2="443.29" xlink:href="#AK"><stop offset=".018" stop-color="#5784f7"/><stop offset=".859" stop-color="#08ffc4"/></linearGradient><linearGradient id="U" x1="541.028" y1="501.398" x2="589.452" y2="443.29" xlink:href="#AK"><stop offset=".018" stop-color="#5784f7"/><stop offset=".859" stop-color="#08ffc4"/></linearGradient><linearGradient id="V" x1="509.417" y1="501.398" x2="557.84" y2="443.29" xlink:href="#AK"><stop offset=".018" stop-color="#5784f7"/><stop offset=".859" stop-color="#08ffc4"/></linearGradient><linearGradient id="W" x1="581.451" y1="397.752" x2="629.875" y2="339.644" xlink:href="#AK"><stop offset=".018" stop-color="#5784f7"/><stop offset=".859" stop-color="#08ffc4"/></linearGradient><linearGradient id="X" x1="613.063" y1="397.752" x2="661.486" y2="339.644" xlink:href="#AK"><stop offset=".018" stop-color="#5784f7"/><stop offset=".859" stop-color="#08ffc4"/></linearGradient><linearGradient id="Y" x1="773.18" y1="237.421" x2="809.599" y2="285.869" xlink:href="#AK"><stop stop-color="#08ffc4"/><stop offset="1" stop-color="#5784f7"/></linearGradient><linearGradient id="Z" x1="833.988" y1="285.375" x2="772.686" y2="331.186" xlink:href="#AK"><stop offset=".126" stop-color="#08ffc4"/><stop offset="1" stop-color="#5784f7"/></linearGradient><linearGradient id="a" x1="715.009" y1="259.668" x2="695.069" y2="216.328" xlink:href="#AK"><stop stop-color="#08ffc4"/><stop offset="1" stop-color="#5784f7"/></linearGradient><linearGradient id="b" x1="718.305" y1="165.242" x2="669.692" y2="223.578" xlink:href="#AK"><stop offset=".018" stop-color="#5784f7"/><stop offset=".859" stop-color="#08ffc4"/></linearGradient><linearGradient id="c" x1="741.211" y1="222.095" x2="782.243" y2="192.103" xlink:href="#AK"><stop stop-color="#08ffc4"/><stop offset="1" stop-color="#5784f7"/></linearGradient><linearGradient id="d" x1="782.573" y1="170.021" x2="833.988" y2="223.578" xlink:href="#AK"><stop stop-color="#08ffc4"/><stop offset="1" stop-color="#5784f7"/></linearGradient><linearGradient id="e" x1="758.843" y1="280.925" x2="721.271" y2="307.951" xlink:href="#AK"><stop stop-color="#08ffb8"/><stop offset="1" stop-color="#5799f7"/></linearGradient><linearGradient id="f" x1="724.072" y1="330.362" x2="665.242" y2="276.806" xlink:href="#AK"><stop offset=".265" stop-color="#08ffb8"/><stop offset="1" stop-color="#5799f7"/></linearGradient><clipPath id="g"><path fill="#fff" d="M0 0h1500v500H0z"/></clipPath><path id="h" d="M864.923 261.624c0-17.483-14.129-31.612-31.612-31.612v-32.829c35.614 0 64.441 28.827 64.441 64.441h-32.829z"/><path id="i" d="M897.752 165.571c0 35.614-28.827 64.441-64.441 64.441v-32.829c17.483 0 31.612-14.129 31.612-31.612h32.829z"/><path id="j" d="M929.364 302.047c-17.483 0-31.612 14.129-31.612 31.611h-32.829c0-35.614 28.827-64.441 64.441-64.441v32.83z"/><path id="k" d="M833.311 269.217c35.614 0 64.441 28.827 64.441 64.441h-32.829c0-17.482-14.129-31.611-31.612-31.611v-32.83z"/><path id="l" d="M905.346 197.183c17.483 0 31.611-14.129 31.611-31.612h32.83c0 35.614-28.827 64.441-64.441 64.441v-32.829z"/><path id="m" d="M1201.32 261.624c0-17.483-14.12-31.612-31.61-31.612v-32.829c35.62 0 64.44 28.827 64.44 64.441h-32.83z"/><path id="n" d="M1234.15 165.571c0 35.614-28.82 64.441-64.44 64.441v-32.829c17.49 0 31.61-14.129 31.61-31.612h32.83z"/><path id="o" d="M1273.36 333.658c0-35.614 28.83-64.441 64.44-64.441v32.83c-17.48 0-31.61 14.129-31.61 31.611h-32.83z"/><path id="p" d="M1265.76 302.047c-17.48 0-31.61 14.129-31.61 31.611h-32.83c0-35.614 28.83-64.441 64.44-64.441v32.83z"/><path id="q" d="M1169.71 269.217c35.62 0 64.44 28.827 64.44 64.441h-32.83c0-17.482-14.12-31.611-31.61-31.611v-32.83z"/><path id="r" d="M1241.75 197.183c17.48 0 31.61-14.129 31.61-31.612h32.83c0 35.614-28.83 64.441-64.44 64.441v-32.829z"/><path id="s" d="M1337.8 230.012c-35.61 0-64.44-28.827-64.44-64.441h32.83c0 17.483 14.13 31.612 31.61 31.612v32.829z"/><path id="t" d="M1201.32 93.884c0-17.483-14.12-31.611-31.61-31.611v-32.83c35.62 0 64.44 28.827 64.44 64.441h-32.83z"/><path id="u" d="M1234.15-2.169c0 35.614-28.82 64.441-64.44 64.441v-32.83c17.49 0 31.61-14.129 31.61-31.611h32.83z"/><path id="v" d="M1306.19 69.865c0 17.483 14.13 31.612 31.61 31.612v32.829c-35.61 0-64.44-28.827-64.44-64.441h32.83z"/><path id="w" d="M1273.36 165.919c0-35.614 28.83-64.441 64.44-64.441v32.829c-17.48 0-31.61 14.129-31.61 31.612h-32.83z"/><path id="x" d="M1265.76 134.307c-17.48 0-31.61 14.129-31.61 31.612h-32.83c0-35.614 28.83-64.441 64.44-64.441v32.829z"/><path id="y" d="M1169.71 101.478c35.62 0 64.44 28.827 64.44 64.441h-32.83c0-17.483-14.12-31.612-31.61-31.612v-32.829z"/><path id="z" d="M1241.75 29.443c17.48 0 31.61-14.129 31.61-31.611h32.83c0 35.614-28.83 64.441-64.44 64.441v-32.83z"/><path id="AA" d="M1337.8 62.272c-35.61 0-64.44-28.827-64.44-64.441h32.83c0 17.483 14.13 31.611 31.61 31.611v32.83z"/><path id="AB" d="M1306.19 405.346c0 17.483 14.13 31.611 31.61 31.611v32.83c-35.61 0-64.44-28.827-64.44-64.441h32.83z"/><path id="AC" d="M65.264 364.923c17.483 0 31.612-14.129 31.612-31.612h32.829c0 35.614-28.827 64.441-64.441 64.441v-32.829z"/><path id="AD" d="M161.317 397.752c-35.614 0-64.441-28.827-64.441-64.441h32.829c0 17.483 14.129 31.612 31.612 31.612v32.829z"/><path id="AE" d="M193.041 429.364c0-17.483-14.128-31.612-31.611-31.612v-32.829c35.614 0 64.441 28.827 64.441 64.441h-32.83z"/><path id="AF" d="M225.871 333.311c0 35.614-28.827 64.441-64.441 64.441v-32.829c17.483 0 31.611-14.129 31.611-31.612h32.83z"/><path id="AG" d="M297.906 405.346c0 17.483 14.128 31.611 31.611 31.611v32.83c-35.614 0-64.441-28.827-64.441-64.441h32.83z"/><path id="AH" d="M265.076 501.398c0-35.614 28.827-64.441 64.441-64.441v32.83c-17.483 0-31.611 14.129-31.611 31.611h-32.83z"/><path id="AI" d="M161.43 436.957c35.614 0 64.441 28.827 64.441 64.441h-32.83c0-17.482-14.128-31.611-31.611-31.611v-32.83z"/><path id="AJ" d="M329.517 397.752c-35.614 0-64.441-28.827-64.441-64.441h32.83c0 17.483 14.128 31.612 31.611 31.612v32.829z"/><linearGradient id="AK" gradientUnits="userSpaceOnUse"/></defs></svg>