<svg xmlns="http://www.w3.org/2000/svg" xmlns:xlink="http://www.w3.org/1999/xlink" width="112" height="112" fill="none" xmlns:v="https://vecta.io/nano"><g fill-rule="evenodd"><path d="M90.311 47.668a20.9 20.9 0 0 0 20.919 20.919v21.725c-23.567 0-42.643-19.076-42.643-42.643h21.725z" fill="url(#A)"/><path d="M68.587 111.23c0-23.568 19.076-42.643 42.643-42.643v21.725a20.9 20.9 0 0 0-20.919 20.919H68.587z" fill="url(#B)"/><path d="M20.919 63.562A20.9 20.9 0 0 0 0 42.643V20.919c23.567 0 42.643 19.076 42.643 42.643H20.919z" fill="url(#C)"/><path d="M42.643 0c0 23.567-19.076 42.643-42.643 42.643V20.919A20.9 20.9 0 0 0 20.919 0h21.725z" fill="url(#D)"/><path d="M47.668 20.919A20.9 20.9 0 0 0 68.587 0h21.725c0 23.567-19.076 42.643-42.643 42.643V20.919z" fill="url(#E)"/><path d="M111.23 42.643C87.663 42.643 68.587 23.567 68.587 0h21.725a20.9 20.9 0 0 0 20.919 20.919v21.725z" fill="url(#F)"/><path d="M63.562 90.311a20.9 20.9 0 0 0-20.918 20.919H20.919c0-23.568 19.076-42.643 42.643-42.643v21.725z" fill="url(#G)"/><path d="M0 68.587c23.567 0 42.643 19.076 42.643 42.643H20.919A20.9 20.9 0 0 0 0 90.311V68.587z" fill="url(#H)"/></g><defs><linearGradient id="A" x1="71.148" y1="47.577" x2="95.154" y2="79.512" xlink:href="#I"><stop stop-color="#08ffc4"/><stop offset="1" stop-color="#5784f7"/></linearGradient><linearGradient id="B" x1="111.23" y1="79.186" x2="70.822" y2="109.383" xlink:href="#I"><stop offset=".126" stop-color="#08ffc4"/><stop offset="1" stop-color="#5784f7"/></linearGradient><linearGradient id="C" x1="32.804" y1="62.241" x2="19.661" y2="33.673" xlink:href="#I"><stop stop-color="#08ffc4"/><stop offset="1" stop-color="#5784f7"/></linearGradient><linearGradient id="D" x1="34.977" y1="0" x2="2.933" y2="38.453" xlink:href="#I"><stop offset=".018" stop-color="#5784f7"/><stop offset=".859" stop-color="#08ffc4"/></linearGradient><linearGradient id="E" x1="50.075" y1="37.475" x2="77.122" y2="17.706" xlink:href="#I"><stop stop-color="#08ffc4"/><stop offset="1" stop-color="#5784f7"/></linearGradient><linearGradient id="F" x1="77.339" y1="3.15" x2="111.23" y2="38.453" xlink:href="#I"><stop stop-color="#08ffc4"/><stop offset="1" stop-color="#5784f7"/></linearGradient><linearGradient id="G" x1="61.698" y1="76.253" x2="36.932" y2="94.067" xlink:href="#I"><stop stop-color="#08ffb8"/><stop offset="1" stop-color="#5799f7"/></linearGradient><linearGradient id="H" x1="38.778" y1="108.84" x2="0" y2="73.538" xlink:href="#I"><stop offset=".265" stop-color="#08ffb8"/><stop offset="1" stop-color="#5799f7"/></linearGradient><linearGradient id="I" gradientUnits="userSpaceOnUse"/></defs></svg>