<svg width="203" height="40" viewBox="0 0 203 40" fill="none" xmlns="http://www.w3.org/2000/svg">
<path d="M60.1328 21.6797C60.1278 22.5108 59.8783 23.2332 59.3876 23.8453C58.9003 24.454 58.2339 24.9239 57.3865 25.2583C56.5442 25.5877 55.583 25.7516 54.5013 25.7516C52.7145 25.7516 51.3162 25.3871 50.3065 24.6563C49.3017 23.9272 48.7408 22.964 48.6235 21.7684H52.7949C52.8501 22.1379 53.0327 22.4239 53.3425 22.6279C53.6573 22.8252 54.0525 22.9239 54.5297 22.9239C54.9149 22.9239 55.233 22.8587 55.4809 22.7265C55.7354 22.5944 55.8644 22.4071 55.8694 22.1647C55.8644 21.9423 55.7522 21.765 55.5345 21.6329C55.3218 21.5008 54.9869 21.3954 54.5297 21.3135L52.46 20.949C51.2677 20.7416 50.3751 20.3453 49.7807 19.7633C49.1862 19.1814 48.8931 18.4306 48.8982 17.5142C48.8931 16.7031 49.1058 16.0175 49.5378 15.454C49.9749 14.8871 50.5962 14.4557 51.4033 14.1613C52.2155 13.862 53.1767 13.7132 54.2886 13.7132C55.9782 13.7132 57.3112 14.0627 58.2841 14.7617C59.2637 15.4607 59.7778 16.4289 59.8297 17.6647H55.9632C55.9431 17.4272 55.8593 17.2215 55.712 17.0493C55.5646 16.8771 55.3737 16.7449 55.1409 16.6546C54.9132 16.5577 54.6587 16.5108 54.379 16.5108C54.019 16.5108 53.7092 16.5761 53.4496 16.7082C53.1901 16.8403 53.0645 17.0276 53.0695 17.27C53.0645 17.4423 53.1382 17.6011 53.2905 17.7483C53.448 17.8954 53.7494 18.0092 54.1965 18.0911L56.571 18.5175C57.7683 18.7349 58.6592 19.1028 59.242 19.6195C59.8314 20.1312 60.1278 20.8185 60.1328 21.6797ZM69.492 20.4339C69.497 20.8185 69.4283 21.1513 69.286 21.4289C69.1487 21.7031 68.9511 21.9155 68.6915 22.0677C68.4387 22.2148 68.1356 22.2884 67.7856 22.2884C67.2581 22.2884 66.8462 22.1245 66.5531 21.7951C66.2634 21.4657 66.116 21.0125 66.111 20.4339V13.8654H61.9095V21.3152C61.9146 22.1663 62.0854 22.9222 62.4203 23.5811C62.7602 24.2399 63.2341 24.7566 63.8437 25.1312C64.4582 25.5058 65.1733 25.6931 65.9904 25.6931C66.8629 25.6931 67.6165 25.4857 68.2511 25.0693C68.8858 24.6479 69.3295 24.066 69.5824 23.3219H69.7046V25.5409H73.6934V13.8654H69.492V20.4339ZM87.2859 16.2684C87.728 17.1496 87.9473 18.2951 87.9473 19.7048C87.9473 21.1145 87.7363 22.1697 87.316 23.0576C86.9007 23.9439 86.3414 24.6061 85.6415 25.0409C84.9465 25.4774 84.1829 25.6948 83.3507 25.6948C82.8031 25.6948 82.3124 25.6061 81.8821 25.4289C81.4551 25.2466 81.09 25.0008 80.7852 24.6914C80.4855 24.377 80.2544 24.0225 80.092 23.6279H80.0317V29.9222H75.8302V13.8654H80.0015V15.9021H80.0936C80.246 15.5075 80.4687 15.1446 80.7635 14.8152C81.0582 14.4807 81.4232 14.2149 81.8586 14.0175C82.2957 13.8152 82.8031 13.7132 83.3808 13.7132C84.1528 13.7132 84.8862 13.9189 85.5812 14.3286C86.2812 14.7383 86.8505 15.3854 87.2859 16.2667V16.2684ZM83.6253 19.7048C83.6253 19.1279 83.5516 18.6329 83.4042 18.2232C83.2619 17.8085 83.0543 17.4908 82.7796 17.2734C82.51 17.051 82.1835 16.9389 81.7983 16.9389C81.4132 16.9389 81.08 17.051 80.802 17.2734C80.5273 17.4908 80.3147 17.8085 80.1623 18.2232C80.0149 18.6329 79.9412 19.1279 79.9412 19.7048C79.9412 20.2817 80.0149 20.7633 80.1623 21.1797C80.3147 21.5894 80.5273 21.9088 80.802 22.1379C81.0816 22.3603 81.4132 22.4724 81.7983 22.4724C82.1835 22.4724 82.5117 22.3637 82.7796 22.1463C83.0543 21.9239 83.2619 21.6061 83.4042 21.1964C83.5516 20.7817 83.6253 20.2851 83.6253 19.7065V19.7048ZM100.959 17.2048C101.233 17.9439 101.369 18.7784 101.369 19.7048V20.6781H93.7581V20.8603C93.7581 21.2349 93.8368 21.5694 93.9942 21.8637C94.1516 22.158 94.3777 22.3888 94.6724 22.556C94.9671 22.7232 95.3221 22.8068 95.7374 22.8068C96.0271 22.8068 96.29 22.7667 96.5295 22.6847C96.7723 22.6045 96.9816 22.4874 97.1541 22.3352C97.3266 22.178 97.4538 21.9908 97.5342 21.7734H101.371C101.238 22.5844 100.927 23.2884 100.435 23.8871C99.9422 24.4807 99.2908 24.9406 98.4787 25.27C97.6715 25.5944 96.7271 25.7566 95.647 25.7566C94.3978 25.7566 93.3227 25.5192 92.4201 25.0426C91.5225 24.561 90.8293 23.872 90.342 22.9757C89.8597 22.0744 89.6186 20.9941 89.6186 19.7383C89.6186 18.4824 89.8614 17.4774 90.3487 16.5761C90.836 15.6747 91.5225 14.9724 92.4117 14.4707C93.2993 13.969 94.3475 13.7182 95.5549 13.7182C96.4374 13.7182 97.2378 13.8553 97.9529 14.1279C98.6679 14.4021 99.2791 14.8001 99.7865 15.3219C100.294 15.8386 100.684 16.4674 100.959 17.2065V17.2048ZM97.5024 18.367C97.4974 18.0326 97.4103 17.7383 97.2429 17.4858C97.0804 17.2266 96.8594 17.0276 96.5814 16.8854C96.3068 16.7383 95.9953 16.6647 95.6453 16.6647C95.2953 16.6647 94.9939 16.7383 94.7092 16.8854C94.4246 17.0276 94.1968 17.2249 94.0243 17.4791C93.8569 17.7332 93.7681 18.0292 93.7581 18.3687H97.5024V18.367ZM110.269 13.7149C109.645 13.7149 109.1 13.9055 108.633 14.2851C108.171 14.6647 107.834 15.265 107.62 16.0861H107.498V13.867H103.419V25.5409H107.62V19.4607C107.62 19.0142 107.714 18.6279 107.901 18.2985C108.089 17.964 108.345 17.7048 108.67 17.5225C109 17.3352 109.37 17.2416 109.782 17.2416C110 17.2416 110.261 17.26 110.566 17.2951C110.87 17.3302 111.127 17.3837 111.334 17.454V13.8737C111.167 13.8236 110.991 13.7851 110.809 13.76C110.631 13.7299 110.45 13.7149 110.268 13.7149H110.269ZM127.861 13.7149C126.993 13.7149 126.236 13.9322 125.592 14.3687C124.947 14.8001 124.527 15.372 124.329 16.0861H124.207C124.084 15.372 123.728 14.7985 123.133 14.3687C122.539 13.9322 121.832 13.7149 121.01 13.7149C120.188 13.7149 119.498 13.9272 118.908 14.3537C118.321 14.7801 117.904 15.357 117.661 16.0861H117.539V13.867H113.55V25.5409H117.751V18.7299C117.751 18.3904 117.807 18.0995 117.919 17.8553C118.036 17.6078 118.198 17.4172 118.406 17.2851C118.614 17.153 118.863 17.0878 119.153 17.0878C119.59 17.0878 119.937 17.2349 120.196 17.5292C120.456 17.8185 120.585 18.2182 120.585 18.7299V25.5409H124.604V18.7299C124.604 18.2182 124.727 17.8185 124.977 17.5292C125.232 17.2349 125.573 17.0878 126.005 17.0878C126.437 17.0878 126.789 17.2349 127.048 17.5292C127.308 17.8185 127.437 18.2182 127.437 18.7299V25.5409H131.638V17.6664C131.638 16.4707 131.288 15.5125 130.588 14.7934C129.894 14.0744 128.984 13.7149 127.864 13.7149H127.861ZM144.844 16.5878C145.326 17.4891 145.567 18.5393 145.567 19.7349C145.567 20.9306 145.326 21.9824 144.844 22.8888C144.362 23.7901 143.668 24.4958 142.766 25.0025C141.863 25.5041 140.777 25.755 139.509 25.755C138.241 25.755 137.154 25.5041 136.25 25.0025C135.348 24.4958 134.654 23.7918 134.172 22.8888C133.69 21.9824 133.449 20.9306 133.449 19.7349C133.449 18.5393 133.69 17.4908 134.172 16.5878C134.654 15.6814 135.348 14.9757 136.25 14.4741C137.153 13.9674 138.24 13.7132 139.509 13.7132C140.778 13.7132 141.863 13.9674 142.766 14.4741C143.668 14.9757 144.362 15.6797 144.844 16.5878ZM141.274 19.7048C141.274 19.0911 141.204 18.5677 141.061 18.1312C140.919 17.6898 140.718 17.3503 140.46 17.1128C140.2 16.8754 139.894 16.755 139.539 16.755C139.164 16.755 138.841 16.8737 138.573 17.1128C138.303 17.3503 138.099 17.6898 137.957 18.1312C137.814 18.5677 137.744 19.0911 137.744 19.7048C137.744 20.3185 137.814 20.8369 137.957 21.2784C138.099 21.7199 138.305 22.0593 138.573 22.2968C138.842 22.5342 139.164 22.6546 139.539 22.6546C139.894 22.6546 140.2 22.5359 140.46 22.2968C140.72 22.0593 140.919 21.7199 141.061 21.2784C141.204 20.8369 141.274 20.3135 141.274 19.7048ZM155.156 9.97406H159.357V25.5409H155.186V23.6262H155.094C154.932 24.0209 154.699 24.3754 154.394 24.6898C154.094 24.9991 153.729 25.2449 153.297 25.4272C152.87 25.6045 152.385 25.6931 151.835 25.6931C151.003 25.6931 150.236 25.4757 149.536 25.0392C148.841 24.6028 148.284 23.9423 147.862 23.056C147.446 22.1697 147.237 21.0526 147.237 19.7031C147.237 18.3536 147.455 17.1496 147.892 16.2667C148.334 15.3854 148.902 14.7383 149.596 14.3286C150.296 13.9189 151.033 13.7132 151.804 13.7132C152.381 13.7132 152.889 13.8152 153.326 14.0175C153.763 14.2149 154.128 14.4807 154.423 14.8152C154.717 15.1446 154.94 15.5075 155.092 15.9021H155.153V9.97406H155.156ZM155.248 19.7031C155.248 19.1262 155.171 18.6312 155.02 18.2215C154.873 17.8068 154.66 17.4891 154.381 17.2717C154.106 17.0493 153.776 16.9373 153.391 16.9373C153.006 16.9373 152.676 17.0493 152.401 17.2717C152.132 17.4891 151.924 17.8068 151.777 18.2215C151.634 18.6312 151.564 19.1262 151.564 19.7031C151.564 20.2801 151.634 20.7767 151.777 21.1931C151.924 21.6028 152.132 21.9205 152.401 22.1429C152.676 22.3603 153.006 22.469 153.391 22.469C153.776 22.469 154.106 22.357 154.381 22.1346C154.66 21.9071 154.873 21.5877 155.02 21.1764C155.173 20.7617 155.248 20.27 155.248 19.7015V19.7031ZM169.003 20.4322C169.008 20.8168 168.939 21.1496 168.797 21.4272C168.66 21.7015 168.462 21.9138 168.203 22.066C167.948 22.2132 167.647 22.2867 167.297 22.2867C166.769 22.2867 166.357 22.1229 166.064 21.7934C165.774 21.464 165.627 21.0108 165.622 20.4322V13.8654H161.421V21.3152C161.426 22.1663 161.596 22.9222 161.931 23.5811C162.271 24.2399 162.745 24.7566 163.355 25.1312C163.969 25.5058 164.684 25.6931 165.501 25.6931C166.374 25.6931 167.127 25.4857 167.762 25.0693C168.397 24.6479 168.841 24.066 169.093 23.3219H169.216V25.5409H173.204V13.8654H169.003V20.4339V20.4322ZM175.341 25.5409H179.543V9.97406H175.341V25.5409ZM192.134 16.0393C192.382 16.5008 192.507 17.0025 192.507 17.5443V25.5409H188.579V23.8988H188.488C188.255 24.3352 187.971 24.6864 187.636 24.9556C187.306 25.2249 186.928 25.4188 186.502 25.5409C186.082 25.663 185.616 25.7232 185.109 25.7232C184.364 25.7232 183.704 25.6011 183.13 25.3586C182.562 25.1112 182.115 24.7349 181.79 24.2332C181.465 23.7316 181.303 23.0928 181.303 22.3185C181.303 21.6797 181.412 21.1346 181.629 20.6847C181.847 20.2282 182.152 19.857 182.544 19.5677C182.934 19.2784 183.387 19.0577 183.907 18.9072C184.429 18.755 184.993 18.6563 185.596 18.6112C186.251 18.561 186.777 18.4991 187.172 18.4289C187.572 18.3536 187.862 18.2483 188.039 18.1179C188.217 17.9807 188.306 17.8018 188.306 17.5777V17.5476C188.306 17.2433 188.188 17.0108 187.956 16.8486C187.723 16.6864 187.423 16.6062 187.058 16.6062C186.658 16.6062 186.33 16.6948 186.077 16.872C185.829 17.0443 185.678 17.3102 185.628 17.6697H181.761C181.812 16.9607 182.038 16.3068 182.44 15.7082C182.845 15.1045 183.436 14.6246 184.213 14.2633C184.99 13.8988 185.958 13.7165 187.12 13.7165C187.957 13.7165 188.709 13.8152 189.372 14.0125C190.037 14.2048 190.603 14.4757 191.07 14.8252C191.538 15.1697 191.893 15.5744 192.135 16.0409L192.134 16.0393ZM188.336 20.4322C188.224 20.4774 188.105 20.5209 187.977 20.561C187.855 20.6011 187.723 20.6396 187.582 20.6747C187.445 20.7098 187.298 20.7433 187.14 20.7734C186.988 20.8035 186.829 20.8319 186.661 20.857C186.336 20.9071 186.07 20.9908 185.863 21.1078C185.66 21.2199 185.507 21.3587 185.405 21.5259C185.308 21.6881 185.261 21.8704 185.261 22.0727C185.261 22.3971 185.375 22.6446 185.605 22.8168C185.832 22.9891 186.125 23.076 186.48 23.076C186.8 23.076 187.1 23.0108 187.378 22.8787C187.663 22.7466 187.894 22.5576 188.071 22.3085C188.249 22.061 188.338 21.7583 188.338 21.4038V20.4306L188.336 20.4322ZM202.072 13.7583C201.895 13.7282 201.714 13.7132 201.531 13.7132C200.907 13.7132 200.361 13.9038 199.895 14.2834C199.433 14.663 199.097 15.2633 198.884 16.0844H198.762V13.8654H194.682V25.5409H198.884V19.4607C198.884 19.0142 198.978 18.6279 199.165 18.2985C199.353 17.964 199.609 17.7048 199.934 17.5225C200.264 17.3352 200.634 17.2416 201.046 17.2416C201.263 17.2416 201.525 17.26 201.829 17.2951C202.134 17.3302 202.39 17.3837 202.598 17.454V13.8737C202.431 13.8236 202.255 13.7851 202.072 13.76V13.7583Z" fill="white"/>
<path fill-rule="evenodd" clip-rule="evenodd" d="M32.4774 17.1422C32.4774 21.3027 35.8396 24.6649 40 24.6649V32.4774C31.5249 32.4774 24.6649 25.6174 24.6649 17.1422H32.4774Z" fill="url(#paint0_linear_223_24)"/>
<path fill-rule="evenodd" clip-rule="evenodd" d="M24.6649 40C24.6649 31.5249 31.5249 24.6649 40 24.6649V32.4774C35.8396 32.4774 32.4774 35.8396 32.4774 40H24.6649Z" fill="url(#paint1_linear_223_24)"/>
<path fill-rule="evenodd" clip-rule="evenodd" d="M7.52264 22.8578C7.52264 18.6974 4.16042 15.3352 0 15.3352V7.52267C8.47515 7.52267 15.3351 14.3827 15.3351 22.8578H7.52264Z" fill="url(#paint2_linear_223_24)"/>
<path fill-rule="evenodd" clip-rule="evenodd" d="M15.3351 0C15.3351 8.47515 8.47515 15.3351 0 15.3351V7.52264C4.16042 7.52264 7.52264 4.16042 7.52264 0H15.3351Z" fill="url(#paint3_linear_223_24)"/>
<path fill-rule="evenodd" clip-rule="evenodd" d="M17.1422 7.52264C21.3026 7.52264 24.6649 4.16042 24.6649 0H32.4774C32.4774 8.47515 25.6174 15.3351 17.1422 15.3351V7.52264Z" fill="url(#paint4_linear_223_24)"/>
<path fill-rule="evenodd" clip-rule="evenodd" d="M40 15.3351C31.5249 15.3351 24.6649 8.47514 24.6649 0H32.4774C32.4774 4.16042 35.8396 7.52264 40 7.52264V15.3351Z" fill="url(#paint5_linear_223_24)"/>
<path fill-rule="evenodd" clip-rule="evenodd" d="M22.8578 32.4774C18.6974 32.4774 15.3351 35.8396 15.3351 40H7.52264C7.52264 31.5249 14.3826 24.6649 22.8578 24.6649V32.4774Z" fill="url(#paint6_linear_223_24)"/>
<path fill-rule="evenodd" clip-rule="evenodd" d="M0 24.6649C8.47514 24.6649 15.3351 31.5249 15.3351 40H7.52264C7.52264 35.8396 4.16042 32.4774 0 32.4774V24.6649Z" fill="url(#paint7_linear_223_24)"/>
<defs>
<linearGradient id="paint0_linear_223_24" x1="25.5859" y1="17.1094" x2="34.2187" y2="28.5938" gradientUnits="userSpaceOnUse">
<stop stop-color="#08FFC4"/>
<stop offset="1" stop-color="#5784F7"/>
</linearGradient>
<linearGradient id="paint1_linear_223_24" x1="40" y1="28.4766" x2="25.4687" y2="39.336" gradientUnits="userSpaceOnUse">
<stop offset="0.126213" stop-color="#08FFC4"/>
<stop offset="1" stop-color="#5784F7"/>
</linearGradient>
<linearGradient id="paint2_linear_223_24" x1="11.7969" y1="22.3828" x2="7.07032" y2="12.1094" gradientUnits="userSpaceOnUse">
<stop stop-color="#08FFC4"/>
<stop offset="1" stop-color="#5784F7"/>
</linearGradient>
<linearGradient id="paint3_linear_223_24" x1="12.5781" y1="3.13323e-07" x2="1.05469" y2="13.8281" gradientUnits="userSpaceOnUse">
<stop offset="0.0176537" stop-color="#5784F7"/>
<stop offset="0.859094" stop-color="#08FFC4"/>
</linearGradient>
<linearGradient id="paint4_linear_223_24" x1="18.0078" y1="13.4766" x2="27.7344" y2="6.36719" gradientUnits="userSpaceOnUse">
<stop stop-color="#08FFC4"/>
<stop offset="1" stop-color="#5784F7"/>
</linearGradient>
<linearGradient id="paint5_linear_223_24" x1="27.8125" y1="1.13281" x2="40" y2="13.8281" gradientUnits="userSpaceOnUse">
<stop stop-color="#08FFC4"/>
<stop offset="1" stop-color="#5784F7"/>
</linearGradient>
<linearGradient id="paint6_linear_223_24" x1="22.1875" y1="27.4219" x2="13.2813" y2="33.8281" gradientUnits="userSpaceOnUse">
<stop stop-color="#08FFB8"/>
<stop offset="1" stop-color="#5799F7"/>
</linearGradient>
<linearGradient id="paint7_linear_223_24" x1="13.9453" y1="39.1406" x2="-1.64849e-06" y2="26.4453" gradientUnits="userSpaceOnUse">
<stop offset="0.2651" stop-color="#08FFB8"/>
<stop offset="1" stop-color="#5799F7"/>
</linearGradient>
</defs>
</svg>
