<svg xmlns="http://www.w3.org/2000/svg" width="33" height="26" fill="none" xmlns:v="https://vecta.io/nano">
  <path d="M32.28 3.068a13.41 13.41 0 0 1-3.804 1.041A6.7 6.7 0 0 0 31.401.467a13 13 0 0 1-4.217 1.597C25.982.79 24.26 0 22.358 0c-3.661 0-6.621 2.943-6.621 6.567a6.08 6.08 0 0 0 .179 1.507C10.407 7.805 5.527 5.186 2.261 1.202c-.574.969-.897 2.099-.897 3.302 0 2.279 1.166 4.288 2.943 5.473-1.095-.036-2.117-.341-2.997-.825v.072c0 3.194 2.279 5.832 5.311 6.442-.556.143-1.13.233-1.741.233-.431 0-.843-.054-1.256-.126.843 2.602 3.284 4.504 6.19 4.558a13.4 13.4 0 0 1-8.236 2.817c-.538 0-1.059-.036-1.579-.09C2.943 24.923 6.424 26 10.156 26 22.34 26 29.015 15.988 29.015 7.303c0-.287 0-.574-.018-.843 1.31-.915 2.422-2.081 3.302-3.409" fill="url(#A)"/>
  <defs><linearGradient id="A" x1="29.371" y1="24.543" x2="5.802" y2="-2.111" gradientUnits="userSpaceOnUse"><stop offset=".265" stop-color="#08ffb8"/><stop offset="1" stop-color="#5799f7"/></linearGradient></defs>
</svg>