<svg width="150" height="150" viewBox="0 0 150 150" fill="none" xmlns="http://www.w3.org/2000/svg">
<path fill-rule="evenodd" clip-rule="evenodd" d="M0 42.9807C0 40.4526 2.0494 38.4032 4.57746 38.4032H78.6683C96.8446 38.4032 111.591 53.1563 111.591 71.326V145.417C111.591 147.945 109.542 149.994 107.014 149.994H4.57746C2.0494 149.994 0 147.945 0 145.417V42.9807ZM9.15492 47.5581V140.839H102.436V71.326C102.436 58.2113 91.7873 47.5581 78.6683 47.5581H9.15492Z" fill="#FFF1E2"/>
<path fill-rule="evenodd" clip-rule="evenodd" d="M37.9209 4.57746C37.9209 2.0494 39.9703 0 42.4984 0H144.94C147.468 0 149.518 2.0494 149.518 4.57746V107.019C149.518 109.547 147.468 111.597 144.94 111.597H68.819C51.7645 111.597 37.9209 97.753 37.9209 80.6984V4.57746ZM47.0758 9.15493V80.6984C47.0758 92.6968 56.8207 102.442 68.819 102.442H140.363V9.15493H47.0758Z" fill="#FFF1E2"/>
<path fill-rule="evenodd" clip-rule="evenodd" d="M148.156 103.762C149.955 105.538 149.974 108.436 148.198 110.235L110.279 148.639C108.502 150.438 105.604 150.456 103.805 148.68C102.006 146.904 101.988 144.005 103.764 142.206L141.683 103.803C143.459 102.004 146.358 101.986 148.156 103.762Z" fill="#FFF1E2"/>
<path fill-rule="evenodd" clip-rule="evenodd" d="M45.7126 1.32023C47.5115 3.09646 47.5299 5.99469 45.7537 7.79361L7.8347 46.197C6.05847 47.9959 3.16024 48.0143 1.36132 46.2381C-0.437604 44.4619 -0.455998 41.5636 1.32023 39.7647L39.2392 1.36132C41.0154 -0.437604 43.9137 -0.455998 45.7126 1.32023Z" fill="#FFF1E2"/>
</svg>
