<svg width="216" height="247" viewBox="0 0 216 247" fill="none" xmlns="http://www.w3.org/2000/svg">
<path d="M215.013 125.196C214.979 124.909 214.903 124.622 214.774 124.345L214.735 124.259C214.602 123.991 214.449 123.762 214.229 123.532C213.899 123.193 212.895 122.184 211.911 121.194L211.724 121.007C210.85 120.128 210.023 119.296 209.746 119.013L209.55 118.822L205.263 115.805L205.014 115.642L204.789 115.542C202.921 114.729 200.646 113.787 198.548 112.965L198.323 112.879C196.545 112.185 194.973 111.602 193.768 111.196C192.645 110.789 191.503 110.383 190.36 109.981C190.15 109.876 189.93 109.795 189.701 109.742L189.629 109.728C188.616 109.374 187.603 109.025 186.599 108.676C181.337 106.854 175.453 104.822 170.081 102.464C170.158 102.364 170.225 102.273 170.282 102.192C170.774 101.522 171.061 101.13 171.248 100.843C172.046 99.7293 173.212 98.094 174.359 96.4874L174.646 96.081C175.621 94.7134 176.562 93.3985 177.241 92.447C181.471 86.3457 186.475 80.3305 191.316 74.5113C192.21 73.4354 193.113 72.35 194.017 71.255L194.734 70.38C196.359 68.41 198.476 65.8184 200.507 63.1981C201.281 62.3422 202.06 61.362 202.887 60.2144L203.91 58.9377C204.144 58.646 204.316 58.3209 204.417 57.9718C205.712 55.9731 206.907 53.9218 208.212 51.6458L208.293 51.5023C208.656 50.8712 209.005 50.2591 209.354 49.6614L210.338 47.964L210.491 47.6532C210.596 47.4045 210.659 47.1607 210.687 46.9312L211.5 39.8449C211.562 39.2854 211.457 38.726 211.203 38.2383L209.449 34.8051L209.187 34.4752L208.675 34.0161L207.681 33.4519C206.305 32.6725 203.604 31.1424 203.533 31.0994L203.47 31.0659C203.317 30.9798 203.15 30.9129 202.978 30.8555L202.744 30.7933C202.577 30.7599 202.419 30.736 202.252 30.7312H202.132C201.845 30.7312 201.587 30.7647 201.353 30.8316L199.891 31.2428C197.769 31.8405 195.126 32.5864 192.578 33.3371L191.847 33.5332L191.383 33.691C189.213 34.3413 187.407 34.9151 185.863 35.4363L185.739 35.4793L185.223 35.7375C183.607 36.7416 181.906 37.7984 180.171 38.8694L179.922 39.0224C177.184 40.7199 174.392 42.4508 171.702 44.1292L171.487 44.263C170.048 45.162 168.648 46.0418 167.309 46.8881L154.481 54.969L136.501 64.1353L126.699 65.2733L118.053 58.5026L107.333 43.2015L105.473 40.0361C102.983 35.7949 100.445 31.4675 97.9314 27.2072L97.8597 27.0828C96.1057 24.1087 94.3756 21.1776 92.6789 18.3278C92.1484 17.4336 91.2642 15.9418 90.4039 14.4882L88.4013 11.1076C88.277 10.8972 88.1384 10.7155 87.9903 10.5625C87.3164 9.86917 86.1454 8.64987 85.0079 7.45926L84.8502 7.29668C83.8704 6.27343 82.9241 5.2932 82.3553 4.70507L82.102 4.47555C81.8296 4.26038 80.6156 3.29929 79.4686 2.38601L79.0814 2.07999C78.2259 1.401 77.4756 0.803305 77.2653 0.640731L77.0072 0.444687L76.295 0.0717236L75.8123 0.0430342L75.6689 0L70.7318 0.3634C70.2061 0.401652 69.6995 0.583352 69.2789 0.884591L66.1245 3.13671L66.0623 3.17975C65.8712 3.3232 65.6991 3.49055 65.5509 3.67703L65.4267 3.84917C65.3215 4.00218 65.1734 4.25082 65.0778 4.55684C64.9201 5.04456 64.552 6.29734 64.0502 8.01392C63.7395 9.08499 63.3859 10.3043 63.2855 10.6151C63.209 10.8542 63.1612 11.1076 63.1517 11.3658C63.0609 13.5892 63.0991 15.937 63.2807 18.5812L63.2473 18.8585C63.2042 19.1837 63.2186 19.504 63.2807 19.8005L63.4337 20.5225C63.6105 22.4399 63.8447 24.4195 64.1601 26.576L64.2079 26.9059C64.7623 30.6308 65.4506 34.3174 66.0671 37.5927L69.7473 56.8195L72.3425 77.7436L71.2958 84.6817L67.2237 87.3116L50.773 89.9845L35.4884 90.8978C31.9851 91.1034 27.8796 91.3759 24.2568 91.615L23.6068 91.658C21.8193 91.7776 20.0748 91.8923 18.4594 91.9927C18.2157 92.0071 17.9719 92.0549 17.7329 92.1314C13.202 93.628 7.47632 95.9327 3.56198 97.5346C3.51418 97.5537 3.46639 97.5728 3.42338 97.5967L2.52007 97.2955L0.359774 104.659L0.0108769 108.762C-0.0655937 109.637 0.264186 110.483 0.904627 111.086C1.46382 111.602 2.5583 112.745 3.5333 113.754C4.46051 114.715 5.33514 115.628 5.87999 116.149L5.98036 116.245L6.4344 116.57C9.95205 118.655 13.9954 120.544 18.8035 122.346L21.3844 123.542L21.5134 123.326C25.5568 124.737 29.605 125.951 33.5241 127.123L47.8814 131.446L58.6064 135.596L50.9976 147.163L41.5917 159.365C41.3576 159.671 41.0995 160.011 40.8318 160.36L40.7506 160.465C39.6561 161.909 38.3656 163.635 37.1899 165.213L37.1373 165.28C36.2484 166.471 35.4024 167.599 34.719 168.512L34.6042 168.68C33.8156 169.923 32.8215 171.582 31.837 173.327L31.144 174.504C31.0531 174.657 30.9815 174.805 30.9193 174.958C30.0781 176.478 29.3039 177.932 28.6826 179.17C27.9943 180.414 27.7793 182.226 27.5068 185.023C27.4351 185.745 27.3587 186.568 27.2965 186.854L27.2583 187.046L27.2248 187.615L27.2631 187.868C27.3061 188.16 27.3826 188.428 27.5116 188.695L27.8079 189.202L27.9513 189.365C28.5153 189.996 29.4186 190.847 30.6373 191.894L30.7616 192.004C32.119 193.166 33.5241 194.28 34.3127 194.883L34.4322 194.969C34.6377 195.112 34.8623 195.227 35.1013 195.313L35.2399 195.356C35.4215 195.409 35.7035 195.48 36.062 195.48H36.2818L36.4969 195.442C38.3656 195.122 41.1138 194.629 43.7951 193.974C44.3064 193.998 44.8178 193.869 45.2671 193.625L45.377 193.568C47.1359 193.085 48.6557 192.573 49.8936 192.038L50.6344 191.655C52.68 190.565 55.127 189.15 57.2921 187.892L57.359 187.854C58.8454 186.993 60.3796 186.104 61.6844 185.382L76.6057 176.646L90.7145 170.148L100.326 169.76L109.918 178.152L121.145 195.581L131.837 214.645C133.051 216.773 134.408 219.125 135.737 221.43L135.937 221.774C136.869 223.395 137.782 224.968 138.599 226.398C138.934 226.977 139.613 228.143 140.301 229.343L142.208 232.648L142.442 232.939C142.801 233.446 143.541 234.326 145.869 237.085L149.372 241.207L149.654 241.403C149.951 241.603 151.303 242.603 152.388 243.406C153.798 244.448 154.51 244.974 154.759 245.142L155.069 245.357L155.428 245.472C155.686 245.553 157.598 245.802 161.163 246.213L161.531 246.256H161.698C161.87 246.256 162.138 246.237 162.473 246.141L162.587 246.108C162.769 246.046 162.931 245.974 163.094 245.883L163.304 245.763L163.491 245.606L163.773 245.343C167.037 241.838 167.419 241.077 168.585 237.405L168.614 237.319C168.705 237.032 168.805 236.726 168.91 236.387L169.078 235.837C169.178 235.569 169.298 235.215 169.494 234.637L169.575 234.364C169.603 234.249 169.623 234.135 169.637 234.025L169.661 233.948H169.646C169.661 233.786 169.666 233.633 169.651 233.475L169.278 228.373C169.207 226.891 169.092 225.351 168.925 223.668L168.877 223.17C168.767 222.109 168.638 221.019 168.495 219.929C168.385 218.843 168.222 217.7 167.998 216.534C167.099 210.858 165.89 205.278 164.719 199.875L164.705 199.817C164.231 197.632 163.696 195.16 163.204 192.764L163.185 192.683C161.091 183.89 159.724 174.446 158.405 165.313L158.396 165.242C158.013 162.612 157.588 159.638 157.144 156.759L157.316 152.743C157.449 151.638 157.569 150.462 157.679 149.176L161.34 146.278L173.241 143.734L188.339 142.218L199.551 140.99C199.723 140.97 199.895 140.932 200.067 140.884L205.784 138.981L206.008 138.852C206.434 138.608 207.977 137.786 209.115 137.183L209.196 137.14C210.358 136.524 211.452 135.935 211.868 135.706C212.48 135.357 212.943 134.797 213.163 134.128C213.412 133.372 213.694 132.311 213.999 130.982C214.138 130.657 214.219 130.303 214.229 129.949C214.549 128.467 214.836 126.936 214.989 125.904C215.008 125.76 215.017 125.626 215.017 125.478L214.998 125.172L215.013 125.196Z" fill="#FFE047"/>
<path d="M109.378 172.175C113.928 179.242 118.966 187.06 123.52 194.127C126.684 199.774 130.455 206.497 133.619 212.144C135.808 216.012 138.762 221.09 140.97 224.944C141.692 226.188 143.938 230.089 144.636 231.29L147.962 235.239L151.145 239.017C151.681 239.375 155.781 242.435 156.279 242.775L161.407 243.368L161.608 243.392C165.082 239.662 164.772 239.638 166.287 235.01L166.741 233.666L166.363 228.516C165.804 216.787 162.697 204.804 160.346 193.348C157.54 181.561 156.054 168.871 154.214 156.907C154.63 147.191 155.06 137.16 155.476 127.448C158.74 119.865 162.21 111.798 165.469 104.219C165.555 103.497 168.437 99.8393 168.82 99.1986C170.316 97.1234 173.327 92.8773 174.823 90.7974C181.863 80.6365 190.705 71.0925 198.266 61.3237C201.544 57.728 204.383 52.387 206.826 48.2079L207.801 46.5343M207.801 46.5343L208.388 41.4037L208.603 39.5054L206.988 36.34M207.801 46.5343C205.702 48.9729 202.285 52.9608 200.182 55.4089C199.513 55.4615 194.628 55.8536 194.098 55.8966M207.801 46.5343L206.477 43.9571M206.988 36.34C206.759 36.2109 202.07 33.5523 202.041 33.538M206.988 36.34C206.883 37.937 206.587 42.2978 206.477 43.9571M206.988 36.34C205.005 38.7308 201.664 42.7473 199.676 45.1429M206.988 36.34C205.535 36.6699 201.262 37.6502 199.881 37.9657L202.041 33.538M202.041 33.538C197.381 34.8529 191.24 36.5552 186.656 38.114C181.017 41.6236 174.349 45.7167 168.738 49.2694C164.891 51.6936 159.629 55.0073 155.781 57.4315C149.348 60.7117 141.969 64.4748 135.541 67.7502M202.041 33.538C200.923 33.8631 196.602 35.1255 195.57 35.4267L199.876 37.9657M206.477 43.9571L208.603 39.5006M206.472 43.9618C205.224 44.177 200.837 44.9421 199.671 45.1429C199.709 43.718 199.838 39.3189 199.872 37.9657M201.616 57.1255L200.177 55.4089C202.003 52.0905 204.656 47.2659 206.472 43.9571C202.677 47.6197 197.888 52.2387 194.098 55.8966M194.098 55.8966C195.666 52.8747 198.113 48.1553 199.676 45.1381M194.098 55.8966C192.559 56.284 188.315 57.3455 186.838 57.7136C190.81 53.8214 195.704 49.0255 199.671 45.1381C196.488 46.7686 191.689 49.2216 188.516 50.8425M188.516 50.8425C188.205 52.0905 187.158 56.3844 186.833 57.7089M188.516 50.8425C192 46.8929 196.397 41.9058 199.872 37.961C196.43 39.8592 191.527 42.5704 188.1 44.4639M188.1 44.4639C188.152 45.2768 188.458 49.9292 188.516 50.8473M188.1 44.4639C190.16 41.9679 193.51 37.9131 195.56 35.4219M188.1 44.4639L184.764 41.8532M184.764 41.8532C187.851 40.0123 192.487 37.2533 195.565 35.4172M184.764 41.8532L186.652 38.1092M184.764 41.8532L180.553 42.5847C181.867 41.6189 185.39 39.0368 186.652 38.1092M195.565 35.4172C193.381 36.0722 188.855 37.4398 186.652 38.1044M195.565 35.4172L192.148 36.3352M186.652 38.1092C181.308 41.6236 174.942 45.8171 169.599 49.3315M160.011 143.629C163.691 142.845 169.025 141.702 172.681 140.918C177.212 140.464 183.406 139.842 187.937 139.388C190.953 139.058 196.134 138.489 199.145 138.159L204.044 136.538L204.474 136.394C205.387 135.878 209.526 133.702 210.381 133.224C210.993 131.374 211.806 127.41 212.097 125.469C211.452 124.804 208.197 121.543 207.643 120.974L203.566 118.105C200.617 116.819 195.78 114.858 192.731 113.835C183.923 110.636 174.192 107.695 165.737 103.598M211.313 129.848C209.631 131.46 206.176 134.774 204.479 136.399L205.506 132.995C206.448 132.483 210.453 130.312 211.313 129.844M211.313 129.848L210.998 129.595L206.974 126.363M211.313 129.848C210.434 127.979 208.508 123.905 207.643 122.074M206.969 126.367C206.735 127.448 205.765 131.833 205.506 133L203.308 129.547L206.969 126.367ZM206.969 126.367L207.638 122.074M207.638 122.074C207.801 122.198 212.078 125.459 212.097 125.473C209.798 123.489 205.86 120.089 203.566 118.11L203.939 118.473L207.638 122.074ZM104.842 44.7078C100.092 36.6173 94.9396 27.8288 90.1506 19.7671C89.1374 18.06 86.8576 14.2061 85.8635 12.5325C84.5778 11.2033 81.4855 7.9757 80.2285 6.67511C79.7602 6.31171 75.7885 3.15587 75.3965 2.84985L70.837 3.18456L67.6826 5.4319C67.3958 6.31649 66.134 10.7299 65.8951 11.4806C65.5414 20.0444 67.2954 29.2011 68.8679 37.5784C69.9958 43.4598 71.3484 50.5413 72.4763 56.4178C73.3127 63.1551 74.2877 71.0399 75.1241 77.7771M75.3965 2.85463L72.2421 5.22151L67.6826 5.43669C69.4701 4.83899 73.6521 3.43799 75.3918 2.85463M85.8587 12.5421L81.8679 9.26673L81.7245 9.15197M81.7245 9.15197C80.176 7.6123 76.9164 4.37518 75.387 2.85463C78.484 5.7188 82.7664 9.68272 85.8539 12.5421C88.0429 16.3052 91.0539 21.4884 93.2381 25.2467M81.7245 9.15197L78.4554 11.2128M81.7245 9.15197C79.3635 8.17175 74.6032 6.20174 72.2374 5.22151M78.4554 11.2128C76.9594 9.76879 73.7094 6.64164 72.2374 5.22151M78.4554 11.2128L76.8543 16.1187L76.7921 16.3052C76.5866 16.1809 71.9028 13.4315 71.8741 13.4171M72.2374 5.22151C72.1561 7.08633 71.9602 11.5045 71.8741 13.4171M72.2374 5.22151C71.0568 7.39235 68.6767 11.7579 67.501 13.9192M71.8741 13.4171C73.0977 13.0059 77.3131 11.5954 78.4602 11.208M71.8741 13.4171L67.501 13.9192M67.501 13.9192C67.544 11.8966 67.6396 7.42104 67.6778 5.43669C67.176 9.49146 66.4686 15.172 65.9668 19.2124L66.0624 18.8777L67.501 13.9192ZM4.54657 100.16L3.07451 105.156L2.74951 109.001C3.90613 110.077 6.71164 113.103 7.77267 114.108C16.476 119.272 26.9047 122.179 36.5208 125.076C40.0385 126.138 45.2385 127.702 48.7418 128.758C55.0841 131.211 62.1958 133.965 68.519 136.409M70.9708 89.5589C64.6716 90.5822 57.3208 91.7776 51.0216 92.8008C46.4285 93.0782 40.158 93.4511 35.5649 93.7237C30.2933 94.0345 23.8076 94.4839 18.5359 94.8187M18.5359 94.8187C14.2583 96.4444 8.81936 98.5148 4.54657 100.15C8.73333 98.4335 14.2392 96.234 18.5359 94.8187ZM8.18848 110.918C9.37377 110.311 13.2929 108.298 14.5451 107.652C13.6752 106.581 10.9127 103.163 9.99988 102.034C9.56017 104.191 8.63297 108.738 8.18848 110.918ZM8.18848 110.918C7.06054 109.646 4.16422 106.376 3.07451 105.152C4.24547 107.385 6.60172 111.875 7.77267 114.103L8.18848 110.918ZM26.0539 94.7182L23.1767 96.3822C19.7881 96.7361 14.5069 97.2859 11.1326 97.6398C15.5679 96.7695 21.6234 95.5885 26.0539 94.723C24.5149 94.7422 20.1418 94.7995 18.5407 94.8234M23.1767 96.387L22.8039 100.27M22.8039 100.27C19.1047 100.781 13.6848 101.532 10.0047 102.044C13.8999 100.37 19.2911 98.0558 23.1815 96.387M22.8039 100.27C20.6149 102.235 16.7484 105.697 14.5499 107.662C17.8477 107.093 23.0668 106.194 26.3741 105.62C25.9105 104.922 23.3344 101.059 22.8087 100.27M26.3694 105.62C27.2822 106.452 30.5848 109.465 31.4355 110.239C30.1164 110.813 26.0826 112.563 24.8304 113.108M24.8304 113.108C25.1649 111.473 26.0444 107.193 26.3694 105.615M24.8304 113.108C22.001 111.607 17.3649 109.154 14.5451 107.657C15.7734 109.861 18.2491 114.294 19.4774 116.489M19.4774 116.489C20.1131 116.087 24.0944 113.567 24.8304 113.103M19.4774 116.489C16.2513 114.896 11.405 112.506 8.19326 110.923C11.1995 113.276 15.5488 116.68 18.5407 119.023M19.4774 116.489L18.5407 119.023M18.5407 119.023C15.5488 117.655 10.755 115.465 7.77745 114.103C11.6392 115.901 16.9778 118.387 20.8348 120.185M20.8348 120.185L18.5455 119.023M20.8348 120.185L25.8532 121.39C27.7602 121.849 32.1047 122.891 33.9734 123.341M158.51 233.365C159.442 233.915 163.362 236.229 164.208 236.731C163.691 238.051 162.095 242.153 161.603 243.406M161.603 243.406C160.599 242.751 156.871 240.322 155.796 239.619C156.279 238.51 158.061 234.398 158.506 233.365C159.294 235.913 160.814 240.858 161.603 243.406ZM164.203 236.731L166.731 233.68M164.633 239.92L164.203 236.736M164.203 236.736C163.969 232.844 163.639 227.263 163.405 223.357C163.156 223.242 158.472 221.052 158.056 220.861M164.203 236.736C162.324 231.878 159.935 225.714 158.061 220.861M156.274 242.794L155.791 239.624L151.136 239.036M152.34 216.041C153.554 217.064 156.895 219.881 158.056 220.861M152.34 216.041C154.252 221.416 156.584 227.986 158.501 233.37M152.34 216.041C152.063 217.49 151.231 221.789 150.94 223.304M158.056 220.861C158.181 224.433 158.372 229.817 158.501 233.37M158.501 233.37C156.35 230.501 153.105 226.178 150.94 223.3M163.409 223.357L165.67 221.215C165.976 224.772 166.43 230.142 166.736 233.685C165.866 230.984 164.279 226.059 163.414 223.357M161.517 203.265C162.893 208.85 165.326 215.434 165.675 221.215L166.033 223.974M144.177 228.588C146.17 231.572 149.162 236.062 151.145 239.036C150.323 236.315 148.827 231.357 148.01 228.641M144.177 228.588L144.641 231.313M144.177 228.588L140.97 224.968M144.177 228.588L148.01 228.641M148.01 228.641C150.285 231.849 153.53 236.425 155.801 239.624C154.314 234.627 152.431 228.292 150.949 223.3C150.701 223.759 148.33 228.057 148.01 228.641ZM62.841 134.214C59.8778 138.723 56.1881 144.332 53.2249 148.827C50.4146 152.47 46.5767 157.453 43.7712 161.096C41.8738 163.568 38.8006 167.723 36.9223 170.219C35.1109 173.069 32.6352 177.492 31.1105 180.524C30.4175 181.671 30.2789 186.214 29.9969 187.471C31.23 188.853 34.4944 191.507 35.9903 192.645C39.7804 191.985 45.1477 190.962 48.7035 189.432C52.1208 187.643 56.8524 184.779 60.2219 182.91C64.8436 180.203 70.6315 176.818 75.2436 174.116C79.6837 172.075 85.5337 169.383 89.969 167.341M30.0017 187.476L33.8635 190.292M30.0017 187.476C30.3888 186.658 32.3484 182.494 32.7785 181.585M30.0017 187.476C31.2348 186.888 35.2256 184.994 36.3918 184.444M33.8635 190.292L32.205 189.623M33.8635 190.292L35.9951 192.65C36.9271 192.014 40.655 189.456 41.5105 188.867M33.8635 190.292C34.1789 189.566 36.0333 185.272 36.3918 184.444M33.8635 190.292C35.8374 188.863 39.833 185.975 41.8164 184.54M33.8635 190.292C35.5649 189.977 39.8664 189.173 41.5105 188.867M41.5105 188.867L41.8164 184.54M41.5105 188.867L43.8333 191.143M36.9271 170.224C36.3535 171.185 34.0355 175.077 33.5146 175.957C33.4763 176.263 32.7929 181.489 32.7785 181.585M32.7785 181.585L30.7808 181.164M32.7785 181.585L36.3918 184.444M36.3918 184.444L41.5535 184.54H41.8164M182.417 69.1368L187.56 69.6006L187.937 69.6341C183.163 75.0277 177.69 81.2055 172.92 86.5944M172.92 86.5944C175.893 81.129 179.449 74.5974 182.422 69.1368C177.528 74.2435 171.888 80.1297 166.994 85.2412C167.486 85.3511 172.29 86.4509 172.92 86.5944ZM190.556 70.38L187.942 69.6341C184.496 74.956 180.386 81.3059 176.935 86.6326M190.556 70.38C186.269 75.4963 181.222 81.5163 176.935 86.6326M190.556 70.38C193.534 65.761 197.224 60.0471 200.197 55.4376C196.378 59.8606 191.756 65.2207 187.942 69.6389C189.773 65.5698 192.282 59.9945 194.112 55.9301C190.504 60.0088 186.021 65.0725 182.422 69.1416M176.935 86.6326L172.925 86.5944M176.935 86.6326C172.481 92.9443 167.472 100.04 163.017 106.347C162.401 106.357 158.855 106.419 158.157 106.433M172.925 86.5944C169.771 92.8869 166.177 100.05 163.017 106.342M172.925 86.5944C168.179 92.973 162.903 100.054 158.157 106.428M158.157 106.428C160.977 99.672 164.179 91.9927 166.999 85.2412C161.565 91.5098 155.538 98.4574 150.099 104.726C151.939 105.113 156.269 106.031 158.157 106.428ZM182.422 69.1416C182.183 69.0555 177.308 67.2672 176.892 67.1142C179.803 64.3744 183.932 60.4965 186.852 57.7471C185.605 60.9508 183.674 65.9236 182.422 69.1416ZM163.013 106.352L165.675 103.598L165.833 103.435L168.681 99.1269C171.133 95.4164 174.483 90.3479 176.93 86.6422C178.56 85.5424 181.351 82.1092 182.517 80.517C184.114 78.5039 187.335 74.4396 188.931 72.4265C189.5 71.6328 190.934 69.878 191.809 69.4046C194.738 65.7515 198.701 60.8073 201.63 57.159C198.227 61.2185 193.945 66.33 190.552 70.3848M153.406 129.088C156.489 121.787 159.925 113.653 163.008 106.352C160.613 113.079 157.884 120.74 155.485 127.477L153.406 129.088ZM153.406 129.088C154.921 121.868 156.637 113.653 158.152 106.438C154.988 113.668 151.432 121.782 148.268 129.012M148.268 129.012L153.406 129.093M148.268 129.012C148.851 121.242 149.511 112.501 150.094 104.736M148.268 129.012C145.883 128.634 141.061 127.864 138.69 127.486C142.347 120.19 146.438 112.028 150.089 104.736M150.089 104.736C148.063 103.665 143.871 101.455 141.826 100.375M150.089 104.736C153.592 97.439 157.512 89.2672 161.01 81.9706M141.821 100.375C140.812 109.116 139.699 118.741 138.686 127.486C132.625 126.238 125.384 124.742 119.329 123.494C126.651 115.968 134.499 107.896 141.821 100.37M161.005 81.9658C162.066 82.5491 165.995 84.7056 166.984 85.2459C170.086 79.5654 173.781 72.7947 176.883 67.1094C171.869 71.8049 166.029 77.2703 161.01 81.9658C154.84 87.8854 148.001 94.4505 141.826 100.37M161.005 81.9658C160.231 80.8851 157.669 77.3037 156.852 76.161C151.987 83.9932 146.681 92.5331 141.816 100.37C140.468 98.424 137.711 94.4457 136.348 92.4852M161.005 81.9658C165.235 75.5011 170 68.2235 174.23 61.7636M172.634 55.8345L170.263 52.0762C164.528 55.9684 157.875 60.4822 152.135 64.3744C152.135 64.3744 153.984 69.4811 154.056 69.6724M172.634 55.8345C166.712 60.2479 159.978 65.2637 154.056 69.6724M172.634 55.8345C172.815 56.5135 174.082 61.2138 174.23 61.7636M172.634 55.8345C177.461 52.2961 183.277 48.0357 188.109 44.4926C183.712 49.9675 178.637 56.2887 174.235 61.7636M172.634 55.8345C176.409 51.4976 181.002 46.214 184.773 41.8866C180.29 45.0329 174.737 48.9347 170.263 52.0809M154.056 69.6724C159.237 64.0444 165.082 57.6993 170.258 52.0762M154.056 69.6724C154.563 70.8486 156.312 74.9082 156.852 76.1562M154.056 69.6724C148.326 77.0599 142.088 85.0977 136.353 92.4852M154.056 69.6724C147.25 74.2149 139.632 79.2977 132.826 83.8354M174.23 61.7636C168.705 66.3396 162.372 71.585 156.852 76.1562M174.23 61.7636C174.464 62.237 176.72 66.7843 176.878 67.1094C180.524 62.0266 184.879 55.954 188.52 50.876C184.095 54.247 178.646 58.3974 174.23 61.7636ZM156.852 76.1562C161.913 69.6389 167.572 62.3518 172.629 55.8345M132.826 83.8354C139.058 77.5524 145.902 70.6478 152.13 64.3696M132.826 83.8354C132.362 82.5683 130.833 78.4179 130.398 77.2225C137.366 73.1007 145.166 68.4913 152.135 64.3696M156.857 76.1514C150.271 81.3968 142.939 87.2351 136.353 92.4805M136.353 92.4805C135.483 90.3383 133.691 85.9536 132.831 83.8354M136.353 92.4805C130.79 102.617 124.892 113.352 119.329 123.489M136.353 92.4805C129.002 96.54 120.815 101.059 113.469 105.118M132.831 83.8354C126.565 90.7256 119.74 98.2231 113.469 105.118M132.831 83.8354C125.475 87.3929 117.245 91.3759 109.89 94.9334M170.263 52.0809L169.608 49.365M170.263 52.0809C173.298 49.2933 177.537 45.4011 180.558 42.6182C177.399 44.5643 172.748 47.4285 169.603 49.365M113.469 105.118C115.3 110.851 117.503 117.751 119.334 123.489M113.469 105.118C112.537 102.464 110.822 97.5824 109.89 94.9334M109.89 94.9334C116.504 89.2242 123.793 82.9269 130.403 77.2225M109.89 94.9334C109.22 93.3316 107.529 89.2959 106.879 87.7467C114.42 84.3709 122.861 80.5935 130.403 77.2225M130.403 77.2225C130.412 77.0838 130.752 72.2066 130.761 72.0727M130.403 77.2225C137.481 71.7523 145.243 65.761 152.316 60.2957M152.321 60.3005L152.144 64.3792C157.712 59.5976 164.055 54.1466 169.618 49.3698M130.771 72.0823C137.696 68.3 145.405 64.0875 152.326 60.3053M130.771 72.0823C138.886 67.3437 147.68 62.2083 155.796 57.465L152.326 60.3053M130.771 72.0823C131.473 71.4463 134.929 68.3431 135.555 67.7836M152.326 60.3053C158.974 55.8727 166.96 51.6554 173.121 46.5534C166.459 50.9621 158.988 55.9014 152.326 60.3053ZM135.555 67.7836C124.988 72.1157 113.818 76.7013 103.251 81.0382C107.366 77.7771 112.566 73.6554 116.672 70.3992M135.555 67.7836C129.6 68.6108 122.622 69.5767 116.672 70.3992M116.672 70.3992C122.976 69.395 130.35 68.2235 136.659 67.2194M116.672 70.3992C118.545 69.9258 122.842 68.8356 124.672 68.3718M177.819 138.57C182.255 138.25 188.334 137.815 192.769 137.499L194.839 133.793C189.596 135.266 183.072 137.097 177.819 138.57ZM177.819 138.57C177.944 138.398 181.112 134.018 181.122 134.004C185.146 133.942 190.824 133.855 194.839 133.798M192.769 137.504L187.956 139.431C192.999 138.517 199.456 137.346 204.493 136.437C201.248 136.734 196.005 137.212 192.769 137.509M177.819 138.58C177.695 138.637 172.629 140.999 172.701 140.966C178.985 139.885 186.48 138.594 192.765 137.513C196.488 136.208 201.802 134.343 205.516 133.043C202.753 133.243 197.597 133.612 194.834 133.812M160.547 143.27C165.89 141.822 172.481 140.033 177.815 138.589C173.183 139.565 166.975 140.875 162.344 141.85M162.344 141.85C168.227 139.397 175.238 136.471 181.117 134.023C176.71 134.477 170.669 135.103 166.258 135.558C165.484 136.806 163.151 140.55 162.344 141.85ZM162.344 141.85C160.265 143.495 156.957 146.111 154.845 147.784M195.723 129.04L194.829 133.817C196.937 132.77 201.224 130.637 203.313 129.6C201.664 129.48 197.305 129.16 195.718 129.045M195.723 129.04C195.747 128.95 196.98 124.048 197.004 123.948M195.723 129.04C198.806 128.323 203.905 127.133 206.978 126.415C204.493 125.798 199.489 124.56 197.004 123.948M154.405 152.551C155.394 144.504 155.385 135.61 155.48 127.506M155.48 127.506C159.93 124.689 165.551 121.136 170.01 118.315M155.48 127.506C159.199 127.424 164.662 127.305 168.366 127.223C172.701 127.477 178.665 127.821 182.995 128.075M170.01 118.315C174.087 119.272 179.755 120.61 183.841 121.572M170.01 118.315C169.833 116.384 169.422 111.965 169.25 110.081M182.995 128.075C182.756 128.83 181.318 133.387 181.117 134.028C185.457 132.55 191.388 130.527 195.723 129.045C192.076 128.768 186.656 128.352 182.995 128.075ZM182.995 128.075C179.521 129.629 174.459 131.895 170.97 133.454C170.502 133.712 165.785 135.572 165.694 136.127C162.434 139.402 158.171 143.677 154.921 146.943M193.324 114.954L196.655 118.899L196.813 119.085M193.324 114.954C190.681 115.069 185.514 115.298 182.876 115.413M193.324 114.954C189.19 113.625 183.497 111.793 179.354 110.464M193.324 114.954C195.981 115.786 200.918 117.33 203.576 118.162C202.457 118.315 198.017 118.923 196.813 119.085M196.813 119.085C192.688 118 186.991 116.498 182.876 115.413M196.813 119.085L196.999 123.953M196.813 119.085C199.723 119.903 204.732 121.309 207.648 122.126C204.876 122.604 199.776 123.475 196.999 123.953M182.876 115.413C182.503 114.887 179.64 110.87 179.354 110.464M182.876 115.413C182.976 116.068 183.717 120.797 183.837 121.572M182.876 115.413C179.153 116.25 173.752 117.469 170.01 118.311M182.876 115.413C178.837 113.83 173.279 111.655 169.25 110.077M179.354 110.464C176.84 110.368 171.769 110.172 169.25 110.077M179.354 110.464C181.762 110.98 186.599 112.018 188.998 112.53L193.328 114.949L197.597 115.642M196.999 123.953C193.156 123.259 187.665 122.265 183.837 121.572M183.837 121.572C187.608 120.85 193.051 119.807 196.808 119.085M169.25 110.077C168.614 109.273 165.756 105.682 165.183 104.96M162.458 111.291C164.341 113.041 168.131 116.56 170.015 118.311C169.608 120.496 168.767 125.057 168.37 127.219C173.064 125.507 179.158 123.279 183.846 121.567C183.712 122.595 183.124 127.137 183 128.07C187.149 126.85 192.865 125.167 197.004 123.948M165.517 104.186C167.826 105.042 172.466 106.763 174.765 107.619L179.153 110.335L179.354 110.459C175.234 108.623 169.594 106.108 165.479 104.267M85.2421 23.8936L89.3285 22.7747M85.2421 23.8936C83.2491 20.1592 80.4771 14.9807 78.4745 11.2415C81.7245 14.6938 86.0785 19.3224 89.3285 22.7747M85.2421 23.8936L80.7113 26.1839M85.2421 23.8936C82.9624 21.8518 79.0815 18.3756 76.8065 16.3387C77.8054 18.8586 79.7124 23.6688 80.7113 26.1887M89.3285 22.7747C92.2487 28.1874 95.7473 34.6617 98.6675 40.0696M89.3285 22.7747C87.0774 18.7342 83.9947 13.2163 81.7436 9.18066C85.3425 14.2157 89.6535 20.2357 93.2572 25.2754M98.6675 40.0696C94.4473 34.982 89.4624 28.9764 85.2469 23.8936C87.7274 29.0768 90.748 35.3885 93.2333 40.5765L93.5296 40.5478L98.6675 40.0696ZM98.6675 40.0696C104.245 46.6921 110.358 53.9505 115.94 60.573C115.156 60.1331 111.166 57.881 110.296 57.3933M98.6675 40.0696C102.319 45.5063 106.644 51.9566 110.296 57.3885M125.795 68.257C122.98 66.0575 118.746 62.7582 115.945 60.573L112.982 56.3461C110.587 52.9273 107.251 48.1696 104.862 44.7556C104.828 44.7125 103.088 42.2213 103.05 42.1735L98.6675 40.0744M110.296 57.3933C114.75 60.8025 120.199 64.9721 124.663 68.3909M110.296 57.3933C115.018 60.8025 120.691 64.8956 125.408 68.3048M110.296 57.3885C104.838 52.0092 98.6818 45.9462 93.2285 40.5717C96.3351 46.2283 100.034 52.9703 103.141 58.6269C104.522 58.3878 108.843 57.6419 110.296 57.3885ZM95.4223 28.699L93.2572 25.2802C96.9326 31.458 101.148 38.5347 104.819 44.7078M124.663 68.3909C128.285 67.9701 133.619 67.3485 137.261 66.9277M124.663 68.3909C117.785 65.2733 110.009 61.7493 103.136 58.6317M103.136 58.6269C107.318 62.2705 112.475 66.7652 116.662 70.4135C109.732 67.6689 101.865 64.5465 94.93 61.7971C97.5396 67.8458 100.627 74.999 103.241 81.0525M103.136 58.6269C101.177 59.3824 96.923 61.0225 94.93 61.7923M103.136 58.6269C98.0557 53.5011 92.2392 47.6389 87.1635 42.5178C88.019 42.2452 92.4734 40.8156 93.2238 40.5717C89.319 36.0818 84.6113 30.6691 80.7065 26.1839M94.93 61.7923C92.8032 62.4139 88.3296 63.7145 86.1789 64.3409M94.93 61.7923C90.4947 56.3748 85.3712 50.1157 80.9359 44.703C81.9443 44.3491 86.2458 42.8382 87.1635 42.513C83.5072 37.7171 79.1197 31.9553 75.4682 27.1689L80.5392 26.2126L80.7065 26.1792M94.9252 61.7923C92.4925 55.7532 89.5914 48.5569 87.1587 42.513C85.1704 37.478 82.6899 31.2046 80.7065 26.1792M80.7065 26.1792C78.0874 22.3969 74.5028 17.2233 71.8837 13.441C72.9399 17.4958 74.412 23.1237 75.4682 27.1642M69.0256 33.4041L71.0664 28.8951M69.0256 33.4041C71.0521 37.7028 73.7668 43.455 75.7932 47.7536M69.0256 33.4041C70.2539 39.295 71.7355 46.3861 72.9686 52.2818L73.0594 52.1335L75.7932 47.7536M71.0664 28.8951C72.5432 34.7908 74.3164 41.8627 75.7932 47.7536M71.0664 28.8951L75.4635 27.1642C77.1602 32.6104 79.2344 39.2615 80.9311 44.6982M80.9311 44.6982C77.8627 39.778 74.1348 33.8058 71.0664 28.8903M80.9311 44.6982C80.4627 44.9755 76.1182 47.5576 75.7932 47.7488M75.7932 47.7488C79.0385 52.9273 82.9289 59.1433 86.1741 64.3313M75.7932 47.7488C76.816 54.0653 78.0348 61.5915 79.0576 67.9032M79.0576 67.9032C77.1984 63.1407 74.823 57.0347 72.9686 52.277M79.0576 67.9032C78.4028 69.1081 76.2999 72.9908 75.6785 74.1336C74.8182 67.2098 73.8241 59.1959 72.9638 52.277M80.9263 44.6982C82.5704 50.8521 84.5252 58.1822 86.1693 64.3361C84.5491 65.149 80.6252 67.119 79.0528 67.908M75.4587 27.1642C73.0977 23.2385 69.8668 17.8688 67.5057 13.9431C68.562 18.3852 70.0054 24.4578 71.0616 28.8951C69.7234 26.3561 67.3098 21.7753 65.9716 19.2363C66.8749 23.4298 68.1175 29.2202 69.016 33.4041M75.6738 74.1383C74.6844 68.6539 73.4657 61.9166 72.4763 56.4465L72.9638 52.2818L71.5778 47.3089C70.9039 44.8942 69.5418 40.017 68.8727 37.6071L69.0256 33.4089C68.5524 31.874 67.2716 27.5754 66.8175 26.0787M85.0414 81.0764C85.3855 75.9793 85.83 69.4381 86.1789 64.3313C91.6322 69.6724 97.7881 75.7019 103.241 81.0429C97.5921 81.0525 90.6811 81.0668 85.0414 81.0764ZM85.0414 81.0764C83.273 77.1794 80.8307 71.7954 79.0624 67.9032C78.3168 73.0003 77.3657 79.5033 76.6201 84.5909M85.0414 81.0764C82.9671 81.9419 78.6704 83.735 76.6201 84.5909M76.6201 84.5909C76.3811 81.9371 75.9223 76.7826 75.6833 74.1336C75.1337 77.7676 74.3833 82.75 73.8385 86.3935M43.0686 106.098C42.7723 105.424 40.8414 100.992 40.5977 100.437C47.3366 100.552 55.2322 100.69 61.9712 100.81M61.9712 100.81C56.0591 102.464 48.9807 104.444 43.0734 106.098M61.9712 100.81C62.3535 102.115 63.5914 106.361 63.9499 107.595C57.3925 107.126 49.6307 106.572 43.0734 106.103M59.6436 95.6315C53.3682 95.8132 45.8694 96.0236 39.5892 96.2053L40.6024 100.442C46.5528 98.9356 53.6837 97.1377 59.6436 95.6315ZM59.6436 95.6315C59.7822 95.9375 61.9091 100.681 61.9712 100.815M59.6436 95.6315L56.2407 92.753M59.6436 95.6315C65.4984 93.805 72.4524 91.6389 78.3024 89.8123M61.9712 100.815C68.5668 98.4479 76.1899 95.708 82.7903 93.3364M61.9712 100.815C69.5704 100.485 78.1543 100.112 85.7488 99.7819M82.7903 93.3364C75.4157 94.0679 67.0278 94.9047 59.6436 95.6363M82.7903 93.3364C83.3638 94.5891 85.2087 98.6009 85.7488 99.7819M82.7903 93.3364C82.7712 93.322 78.4888 89.9606 78.3024 89.8171M82.7903 93.3364C89.3238 89.4107 96.7079 84.9782 103.246 81.0525C95.2263 83.8688 86.3223 86.996 78.3024 89.8171M82.7903 93.3364C90.509 91.5528 99.1693 89.5541 106.883 87.7706C100.116 91.615 92.5068 95.9375 85.7488 99.7819M85.7488 99.7819C78.7995 102.273 70.8943 105.109 63.9499 107.6C71.7977 107.954 80.6157 108.355 88.4682 108.714M85.7488 99.7819C86.4227 101.991 87.8039 106.524 88.4682 108.714M85.7488 99.7819C93.4818 98.2375 102.166 96.5018 109.894 94.9573C103.026 99.3659 95.3363 104.305 88.4682 108.714M88.4682 108.714C96.4833 107.571 105.459 106.29 113.474 105.142C105.502 109.412 96.7796 114.084 88.8028 118.354C88.7215 115.958 88.5495 111.1 88.4682 108.714ZM88.4682 108.714C80.6348 110.66 71.9649 112.817 64.141 114.763M39.5844 96.2101C34.437 97.4677 27.9561 99.0456 22.8183 100.303C28.3146 100.346 35.1157 100.404 40.5977 100.447C36.3774 101.991 30.5991 104.109 26.3837 105.654C31.4642 105.792 37.9929 105.969 43.0686 106.108M43.0686 106.108C43.1403 106.519 44.0006 111.463 44.101 112.028M43.0686 106.108C39.7708 107.289 34.7333 109.096 31.4499 110.273C35.087 110.775 40.4734 111.521 44.101 112.023M37.7205 93.8863C33.4094 94.637 27.4925 95.6698 23.1911 96.4157C28.1569 96.3535 34.6234 96.2675 39.5844 96.2053M37.7205 93.8863C34.4418 93.738 29.2896 94.2736 26.0635 94.7565C29.28 94.5174 34.5135 94.1253 37.7205 93.8863ZM37.7205 93.8863L39.5844 96.2053M39.5844 96.2053C44.6793 95.1486 51.1506 93.805 56.2407 92.753M56.2407 92.753C50.4624 92.7052 43.4749 93.475 37.7252 93.8863C43.4892 93.5324 50.491 93.1069 56.2407 92.753ZM56.2407 92.753C60.7094 91.7919 66.5212 90.5487 70.9899 89.5924M56.2407 92.753C63.2999 91.811 71.248 90.7543 78.3024 89.8171M119.334 123.508C109.421 121.835 98.7105 120.027 88.798 118.349M64.1363 114.763C64.098 113.342 63.9785 108.943 63.9403 107.595C57.7223 108.982 50.3094 110.636 44.0914 112.018M88.7932 118.349C80.8594 117.196 72.0605 115.915 64.1315 114.763C57.8513 113.902 50.3668 112.879 44.0914 112.023M33.9686 123.374L36.3583 120.931M33.9686 123.374C29.3326 122.078 23.1815 120.357 18.5407 119.061C24.0466 119.64 30.8429 120.352 36.3583 120.931M33.9686 123.374L31.5837 123.623C38.2796 125.234 46.0605 127.104 52.7517 128.71M36.3583 120.931C42.758 122.514 50.3238 124.383 56.7234 125.966M36.3583 120.931C31.1727 119.578 24.6774 117.885 19.4822 116.527C26.1973 116.694 34.0785 116.886 40.7984 117.053M56.7234 125.966C49.4778 125.139 41.2094 124.197 33.9734 123.374C39.8425 125.043 46.8826 127.042 52.7565 128.71L56.7234 125.966ZM56.7234 125.966C57.3543 125.268 60.4274 121.873 61.1252 121.103M56.7234 125.966C65.7708 126.281 75.5686 126.626 84.6208 126.941M56.7234 125.966C63.773 128.352 71.6256 131.015 78.6704 133.406M40.7984 117.053C40.6072 117.225 36.6977 120.639 36.3631 120.931C44.2921 120.983 53.1914 121.046 61.1252 121.103M40.7984 117.053C47.1646 118.325 54.7543 119.836 61.1252 121.103M84.6208 126.941C77.0837 125.067 68.6576 122.973 61.1204 121.103M84.6208 126.941C83.1774 128.51 80.0947 131.862 78.6704 133.406M78.6704 133.406C70.2826 131.885 61.1396 130.231 52.7517 128.71M78.6704 133.406C78.2355 133.688 73.9771 136.471 73.6855 136.662M52.7517 128.71C59.4668 131.264 66.9704 134.114 73.6855 136.662M52.7517 128.71L48.7466 128.792C56.8333 131.34 65.6083 134.114 73.6855 136.662M84.616 126.941C85.6532 124.809 87.7609 120.472 88.7885 118.354C79.8318 119.243 70.0675 120.214 61.1157 121.108C61.6892 119.903 63.5866 115.901 64.1267 114.767C56.6756 115.499 48.2352 116.326 40.7888 117.058M40.7888 117.058C41.1091 116.57 43.8477 112.386 44.0866 112.028C38.0694 112.377 30.8429 112.797 24.8304 113.146C29.6672 114.332 35.9569 115.872 40.7888 117.058ZM119.319 123.513C107.978 124.637 95.9528 125.822 84.6113 126.946C91.5796 130.637 99.4035 134.788 106.367 138.474M106.367 138.474C110.415 133.793 115.262 128.194 119.315 123.513M106.367 138.474C97.4057 136.834 87.6175 135.046 78.6609 133.406C85.1991 137.346 92.5738 141.788 99.1072 145.723M106.367 138.474C104.556 140.282 100.914 143.921 99.1072 145.723M99.1072 145.723C90.9153 142.802 81.8679 139.584 73.6807 136.662M99.1072 145.723C98.3425 146.249 94.5046 148.884 93.826 149.348M93.826 149.348C89.9307 146.9 84.6113 143.548 80.7208 141.1C79.0719 140.062 75.2962 137.685 73.6807 136.667L68.519 136.447M93.826 149.348C85.634 145.173 76.7061 140.621 68.519 136.447M93.826 149.348C93.6778 149.372 88.7502 150.189 88.6116 150.213M68.519 136.447C74.9521 140.856 82.1833 145.809 88.6116 150.213M88.6116 150.213C81.6767 145.599 74.0296 140.507 67.1043 135.897M88.6116 150.213C83.5502 147.536 77.3848 144.27 72.3329 141.592M88.6116 150.213C91.0921 154.058 94.4807 159.317 96.9612 163.162M88.6116 150.213C95.3506 157.357 102.634 165.089 109.373 172.232C105.612 169.483 100.727 165.916 96.9612 163.162M68.1796 90.0466C70.5598 88.507 74.2399 86.1305 76.6105 84.6004C75.2054 85.8436 72.376 88.354 70.9756 89.5924M70.9756 89.5924C75.3296 86.953 80.6587 83.7254 85.0318 81.0812C83.2443 83.3907 80.0756 87.4981 78.2881 89.8123C76.3716 89.755 72.8635 89.6498 70.9756 89.5924ZM161.507 203.293L158.601 204.03M161.507 203.293C158.62 196.011 155.385 187.825 152.498 180.538M161.507 203.293C159.882 196.164 158.033 188.031 156.408 180.892L152.498 180.538M158.601 204.03C156.647 196.513 154.453 188.05 152.498 180.538M158.601 204.03L153.569 202.873L153.301 202.811C151.098 195.571 148.608 187.385 146.409 180.155M158.601 204.03C154.673 196.346 150.333 187.844 146.409 180.155M152.498 180.538C151.967 180.504 147.078 180.198 146.409 180.155M152.498 180.538C148.287 171.864 143.718 162.459 139.503 153.78M152.498 180.538C150.964 172.189 149.258 162.913 147.723 154.569M139.503 153.78C137.199 154.029 132.453 154.536 130.126 154.784M139.503 153.78C132.907 143.882 125.92 133.406 119.324 123.508C122.847 133.702 126.603 144.585 130.126 154.784M139.503 153.78C139.24 145.336 138.944 135.945 138.676 127.501C141.606 136.261 144.794 145.809 147.723 154.569M147.723 154.569C150.529 163.071 153.602 172.395 156.408 180.897M147.723 154.569L152.46 154.966M147.723 154.569C147.891 146.378 148.082 137.212 148.254 129.026C149.606 137.375 151.107 146.617 152.46 154.966M156.408 180.897C155.131 172.534 153.736 163.334 152.46 154.966M156.408 180.897C158.348 188.102 160.556 196.284 162.497 203.494L161.507 203.298C162.798 208.869 164.37 215.668 165.665 221.248C163.472 215.898 160.8 209.395 158.601 204.035C160.102 210.093 161.899 217.332 163.405 223.39C160.188 216.844 156.517 209.371 153.301 202.82M156.408 180.897L157.994 182.408C156.207 173.533 154.252 163.841 152.465 154.966M152.46 154.966C152.761 146.627 153.091 137.456 153.392 129.107C153.655 138.178 153.937 147.894 154.204 156.955C153.941 156.654 152.747 155.296 152.46 154.966ZM146.414 180.16C144.187 171.654 141.735 162.287 139.503 153.785C141.429 153.972 145.84 154.392 147.723 154.574M147.446 202.61C150.787 208.362 154.72 215.137 158.061 220.89C156.58 215.262 154.783 208.434 153.306 202.815M147.446 202.61C148.89 206.578 150.897 212.092 152.345 216.07C149.578 213.249 145.64 209.227 142.863 206.392M147.446 202.61C147.852 202.624 153.1 202.806 153.306 202.815M147.446 202.61C144.942 195.748 142.084 187.921 139.584 181.064M153.306 202.815C148.904 195.839 143.986 188.04 139.584 181.064M139.584 181.064C140.831 180.897 145.252 180.313 146.414 180.155C141.128 171.922 135.412 163.013 130.126 154.784M139.584 181.064C136.525 172.572 133.184 163.276 130.126 154.784M96.9612 163.162C101.726 167.322 107.189 172.089 111.959 176.254M128.405 188.772C131.817 195.791 135.655 203.69 139.073 210.719C139.187 210.59 142.638 206.645 142.858 206.392C138.26 200.788 133.003 194.381 128.405 188.772ZM128.405 188.772C129.213 188.102 132.735 185.186 133.462 184.583C136.463 191.555 139.856 199.43 142.858 206.397M142.858 206.397C145.372 211.666 148.421 218.059 150.94 223.338C147.298 219.47 142.719 214.602 139.073 210.724M142.858 206.397C143.25 206.076 147.188 202.83 147.441 202.619C142.992 196.881 137.911 190.321 133.462 184.588M139.073 210.724L135.617 212.168M139.073 210.724C141.869 216.342 145.205 223.056 148.001 228.679C144.12 223.505 139.498 217.342 135.617 212.168M135.617 212.168C132.147 205.646 128.204 198.235 124.739 191.722M124.739 191.722C129.323 197.799 134.494 204.656 139.073 210.729M124.739 191.722L128.405 188.777M124.739 191.722C120.242 184.473 115.257 176.431 110.764 169.182C111.017 168.986 115.276 165.662 115.343 165.61M128.405 188.777C122.737 182.479 116.437 175.479 110.764 169.177M128.405 188.777C124.199 181.322 119.544 173.06 115.338 165.61M115.338 165.61C121.159 171.706 127.64 178.491 133.462 184.588M115.338 165.61C116.939 164.195 120.352 161.173 121.929 159.776C125.647 167.781 129.743 176.588 133.462 184.588M133.462 184.588C134.637 183.914 138.47 181.709 139.579 181.073C133.877 174.193 127.626 166.647 121.929 159.772M121.929 159.772C114.583 155.248 106.458 150.251 99.1072 145.728C104.312 152.102 110.133 159.231 115.338 165.605C108.408 160.369 100.756 154.588 93.826 149.353C99.2554 155.712 105.33 162.822 110.759 169.177M121.929 159.772C116.93 152.929 111.371 145.322 106.372 138.479C114.057 143.763 122.426 149.51 130.121 154.794C128.099 156.023 123.965 158.533 121.929 159.772ZM110.759 169.177L109.369 172.237C114.291 178.482 119.812 185.477 124.734 191.717L123.511 194.189C127.334 199.87 131.794 206.488 135.612 212.163L134.164 213.196C137.271 217.992 141.061 223.835 144.167 228.621C141.505 223.5 138.274 217.275 135.617 212.163M110.759 169.177C103.586 163.033 95.7903 156.362 88.6116 150.218M88.6116 150.218C86.2362 154.579 83.144 160.264 80.7638 164.634M88.6116 150.218C84.2958 152.939 78.7565 156.424 74.4454 159.14M52.4506 159.714C49.0859 163.415 44.7175 168.221 41.348 171.931L44.5311 175.804C46.9782 170.831 49.9988 164.692 52.4506 159.714ZM52.4506 159.714C52.9046 160.446 55.3899 164.458 55.7866 165.093C52.4458 168.273 47.8767 172.624 44.5359 175.804M44.5359 175.804C42.2752 178.209 38.6572 182.054 36.387 184.468C37.8352 180.815 39.8999 175.599 41.3528 171.931M44.5359 175.804L44.7032 175.929L48.8374 179.022C47.1407 180.361 43.5274 183.211 41.8069 184.569C42.4712 182.431 43.862 177.965 44.5359 175.804ZM41.3528 171.931L41.3719 166.767V166.581M41.3528 171.931C44.6458 166.222 48.541 159.466 51.8341 153.752M41.3528 171.931C38.8866 174.714 35.2543 178.812 32.7738 181.609C35.412 177 38.7289 171.2 41.3719 166.581M41.3719 166.581C44.5502 162.684 48.6605 157.644 51.8341 153.752M51.8341 153.752C51.8914 154.311 52.4171 159.313 52.4602 159.714M51.8341 153.752C55.0936 148.917 59.0414 143.065 62.2914 138.235M52.4602 159.714C55.6002 152.862 59.1561 145.102 62.2962 138.24M52.4602 159.714C55.5859 155.597 59.5671 150.352 62.6881 146.24M62.6881 146.24C60.5278 152.145 57.9517 159.193 55.7962 165.093M62.6881 146.24C63.8495 147.87 66.4352 151.504 67.5727 153.101C63.9785 156.759 59.3807 161.44 55.7914 165.089M62.2914 138.235C62.583 137.212 63.0848 135.457 63.3716 134.448M62.2914 138.235C62.3822 140.057 62.5973 144.466 62.6833 146.235M63.0179 134.319C59.462 140.492 55.3804 147.588 51.8293 153.756L53.2249 148.865C49.4874 154.45 45.1046 161.005 41.3671 166.585M41.3671 166.585L43.0113 162.115C40.1102 166.346 36.4013 171.759 33.505 175.986C35.7274 173.327 39.1543 169.234 41.3671 166.585ZM72.3377 141.597C70.9804 144.872 68.9204 149.84 67.5631 153.106C69.2359 154.574 72.7488 157.653 74.4454 159.14M74.4454 159.14C73.7954 153.737 72.9829 147.01 72.3329 141.597C70.0054 139.55 67.2142 137.093 64.8914 135.046M60.5278 169.717C59.7488 168.957 56.494 165.782 55.7866 165.089C53.7219 169.225 50.9021 174.881 48.8374 179.017M66.4352 136.394C66.7793 141.487 67.2238 148.014 67.5631 153.096C65.3837 158.241 62.7024 164.572 60.5278 169.712M60.5278 169.712C64.8054 166.461 70.1583 162.392 74.4454 159.136M60.5278 169.712C57.058 172.471 52.3024 176.258 48.8326 179.017M70.2396 175.197C67.3624 177.416 63.0752 180.724 60.2076 182.938L55.5381 184.239M70.2396 175.197C65.7326 177.97 60.0499 181.461 55.5381 184.239M70.2396 175.197L75.2293 174.14C78.6704 172.194 83.5646 169.426 86.9914 167.484M55.5381 184.239L52.1256 182.388C56.0973 179.692 61.3738 176.105 65.3407 173.409M55.5381 184.239C58.4344 181.035 62.4348 176.617 65.3407 173.409M65.3407 173.409L70.2348 175.197M70.2348 175.197C73.3557 172.065 77.6381 167.766 80.759 164.63M70.2348 175.197C75.4443 172.801 81.7866 169.88 86.9866 167.484M65.3359 173.409C70.101 170.697 75.9988 167.336 80.7543 164.63M65.3359 173.409C68.1127 169.053 71.6543 163.496 74.4359 159.136C75.8984 160.408 79.2583 163.329 80.7543 164.63M65.3359 173.409C64.8245 173.017 60.9102 170.018 60.5182 169.717C58.0234 173.48 54.6109 178.63 52.1208 182.388L48.823 179.017C46.744 181.815 43.5561 186.104 41.4866 188.891C44.5168 187.036 49.1002 184.234 52.116 182.388C49.7837 184.856 46.1322 188.714 43.8094 191.167C47.2458 189.135 52.1065 186.261 55.5285 184.239C53.9752 185.449 50.4719 188.184 48.9521 189.365M80.7543 164.63C81.8774 165.141 85.9399 167.006 86.9818 167.484M80.7543 164.63C85.6436 164.19 92.0576 163.606 96.9517 163.162C94.3421 164.29 89.5914 166.351 86.9818 167.484M86.9818 167.484C91.269 167.312 96.9373 167.083 101.248 166.91M64.5043 134.898C64.0024 137.991 63.166 143.151 62.6642 146.24C63.4719 143.505 64.9344 138.537 65.7374 135.802M162.535 111.043C163.696 110.875 168.151 110.23 169.221 110.072C168.624 109.388 165.541 105.874 165.015 105.271M11.1278 97.6446C11.1278 97.6446 9.99988 102.034 9.99988 102.044C8.50392 102.718 4.51789 104.511 3.07451 105.161C5.21091 103.172 8.9962 99.6337 11.1278 97.6446ZM106.883 87.7515C114.616 82.6782 123.038 77.1507 130.766 72.0775C121.852 74.9799 112.165 78.131 103.246 81.0334C104.011 82.4439 106.09 86.2883 106.883 87.7515ZM155.246 143.342C158.467 141.066 163.046 137.829 166.253 135.562C166.75 133.592 167.854 129.227 168.361 127.223C164.255 132.278 159.356 138.293 155.246 143.342ZM89.3333 22.7747L93.262 25.2754C96.3208 30.5591 99.9914 36.8899 103.05 42.1687C98.6675 35.9718 93.7113 28.9668 89.3333 22.7747Z" stroke="#041E42" stroke-linejoin="round"/>
</svg>
