<svg width="125" height="150" viewBox="0 0 125 150" fill="none" xmlns="http://www.w3.org/2000/svg">
<path d="M124.324 49.9478C123.951 49.3055 123.562 48.6606 123.167 48.0287C122.063 46.2637 120.865 44.5352 119.603 42.8903C113.614 35.0627 105.825 28.5483 97.0839 24.0522C87.9272 19.3446 78.0343 16.8747 67.6792 16.718C67.003 16.7076 66.4494 16.1514 66.4494 15.4778V6.0705C66.4494 2.72324 63.7262 0 60.3789 0C57.0317 0 54.3084 2.72324 54.3084 6.0705V16.8355C54.3084 17.423 53.8881 17.9321 53.3111 18.0496C49.828 18.7572 46.3815 19.752 43.063 21.0078C42.9194 21.0627 42.7732 21.0888 42.6244 21.0888C41.9429 21.0888 41.3868 20.5326 41.3868 19.8486V6.0705C41.3868 2.72324 38.6635 0 35.3163 0C31.969 0 29.2458 2.72324 29.2458 6.0705V26.9948C29.2458 27.7363 28.8802 28.436 28.2641 28.8721C19.7445 34.8851 12.6583 42.9191 7.77058 52.1044C2.72359 61.5875 0.0369015 72.3159 0.000347963 83.1305C-0.0283727 92.0496 1.72097 100.731 5.19878 108.935C8.55126 116.841 13.3607 123.966 19.4886 130.115C25.6896 136.337 32.9116 141.23 40.956 144.655C49.2797 148.201 58.0891 150 67.1387 150H116.776C118.972 150 120.758 148.214 120.758 146.018V112.804C120.758 111.06 119.875 109.467 118.395 108.54L115.617 106.804L115.468 106.713L105.089 100.225L104.896 100.104L91.7758 91.906C90.9351 91.3812 90.5304 90.3812 90.7706 89.4204C91.2641 87.4491 91.5147 85.4099 91.5147 83.3577C91.5147 81.3055 91.2641 79.2637 90.7706 77.295C90.5304 76.3342 90.9351 75.3342 91.7758 74.8094L104.896 66.611L105.089 66.4909L115.468 60.0026L115.617 59.9112L122.977 55.3107C124.81 54.1645 125.4 51.812 124.322 49.953L124.324 49.9478ZM108.188 49.282C108.092 49.9478 107.708 50.5326 107.139 50.8877L98.4547 56.3159L86.5904 63.7311C85.8959 64.1645 85.0944 64.3943 84.2771 64.3943C83.3293 64.3943 82.3894 64.0783 81.6322 63.5065C77.2902 60.2219 72.1074 58.4856 66.6453 58.4856H66.5095C59.9925 58.5196 53.8332 61.0862 49.1648 65.7102C44.4964 70.3342 41.8724 76.47 41.7784 82.9843C41.6818 89.6997 44.2223 96.0313 48.9325 100.809C53.6427 105.59 59.9351 108.222 66.6453 108.222C72.1178 108.222 77.3084 106.478 81.6557 103.183C82.4103 102.611 83.3111 102.308 84.2641 102.308C85.0865 102.308 85.8907 102.538 86.5904 102.976L98.4547 110.392L107.298 115.919C108.123 116.436 108.617 117.326 108.617 118.3V135.574C108.617 136.833 107.59 137.859 106.332 137.859H67.1283C59.7915 137.859 52.64 136.41 45.8724 133.554C39.3319 130.794 33.4442 126.851 28.3711 121.833C23.2876 116.807 19.2954 110.971 16.5017 104.486C13.6009 97.7546 12.1335 90.6266 12.1413 83.3003C12.1492 75.9765 13.5852 68.8668 16.4103 62.1749C19.1387 55.7102 23.0421 49.9008 28.016 44.906C28.1518 44.7676 28.3319 44.6919 28.5225 44.6919C28.922 44.6919 29.2458 45.0157 29.2458 45.4125V52.0209C29.2458 55.3681 31.969 58.0914 35.3163 58.0914C38.6635 58.0914 41.3868 55.3681 41.3868 52.0209V36.4517C41.3868 35.5849 41.8881 34.7807 42.6661 34.3995C50.1675 30.718 58.2379 28.8512 66.6479 28.8512C75.0578 28.8512 82.3372 30.5405 89.533 33.8747C96.486 37.094 102.58 41.6606 107.65 47.4439C108.092 47.9478 108.29 48.6188 108.194 49.2846L108.188 49.282ZM79.3659 83.7937C79.2876 86.0339 78.6218 88.2141 77.4416 90.1018C76.2588 91.9948 74.593 93.5483 72.6244 94.5953C70.7967 95.5692 68.7314 96.0835 66.6479 96.0835C59.6296 96.0835 53.9194 90.3734 53.9194 83.3551C53.9194 76.3368 59.6296 70.6266 66.6479 70.6266C68.7314 70.6266 70.7967 71.141 72.6244 72.1149C74.593 73.1645 76.2588 74.718 77.4416 76.6084C78.6244 78.4961 79.2902 80.6762 79.3659 82.9086V83.7937Z" fill="#EBEBEB"/>
<path d="M105.18 66.6944C107.46 71.9608 108.617 77.5665 108.617 83.355C108.617 89.1435 107.46 94.7493 105.18 100.016L105.089 100.224L115.468 106.713L115.543 106.556C119.003 99.2793 120.758 91.4725 120.758 83.355C120.758 75.2375 119.003 67.4307 115.543 60.154L115.468 59.9973L105.089 66.4856L105.18 66.6944Z" fill="#73E2E2"/>
</svg>
