<svg width="276" height="280" viewBox="0 0 276 280" fill="none" xmlns="http://www.w3.org/2000/svg">
<path d="M110.782 129.601L110.816 129.595C111.025 129.569 111.234 129.531 111.44 129.483C111.536 129.464 111.63 129.454 111.722 129.432C111.916 129.38 112.106 129.3 112.295 129.23C112.389 129.195 112.489 129.167 112.582 129.126C112.675 129.085 112.884 128.962 113.031 128.887C113.178 128.813 113.267 128.769 113.38 128.694C113.492 128.619 113.6 128.527 113.71 128.446C113.821 128.365 113.984 128.245 114.108 128.132C114.108 128.132 114.121 128.109 114.13 128.094C114.223 128.008 114.298 127.912 114.387 127.818C114.475 127.724 114.623 127.579 114.727 127.449C114.83 127.32 114.903 127.201 114.979 127.095C115.054 126.989 115.157 126.843 115.235 126.708C115.312 126.573 115.387 126.441 115.439 126.29C115.49 126.14 115.589 126.027 115.616 125.893C115.643 125.758 115.714 125.574 115.762 125.411C115.81 125.249 115.844 125.173 115.87 125.049C115.87 125.049 115.883 125.026 115.892 125.011C115.923 124.843 115.945 124.673 115.959 124.503C116.013 124.231 116.027 123.952 116 123.675C115.997 123.508 116.005 123.337 115.988 123.167C115.971 122.996 115.947 122.952 115.93 122.842C115.914 122.732 115.868 122.455 115.814 122.273C115.789 122.178 115.744 122.082 115.713 121.989C115.654 121.788 115.583 121.591 115.5 121.398L115.491 121.363L69.5448 20.0561L133.356 110.917L133.389 110.936C133.504 111.089 133.625 111.235 133.754 111.375C133.832 111.465 133.899 111.564 133.981 111.647C134.101 111.763 134.228 111.872 134.36 111.974C134.462 112.063 134.562 112.167 134.671 112.245C134.78 112.324 134.906 112.382 135.025 112.452C135.144 112.521 135.315 112.621 135.46 112.706C135.605 112.79 135.676 112.796 135.783 112.844C135.947 112.939 136.13 113.001 136.313 113.063L136.347 113.082C136.456 113.116 136.567 113.131 136.675 113.159C136.848 113.209 137.024 113.249 137.201 113.28C137.343 113.301 137.486 113.314 137.63 113.32C137.791 113.333 137.948 113.355 138.108 113.353C138.268 113.351 138.407 113.332 138.558 113.32C138.709 113.307 138.865 113.303 139.017 113.281C139.168 113.259 139.337 113.207 139.493 113.168C139.65 113.129 139.745 113.119 139.87 113.082L139.912 113.061C140.065 113.01 140.208 112.943 140.358 112.88C140.508 112.817 140.631 112.774 140.761 112.704C140.89 112.634 140.961 112.58 141.059 112.522C141.219 112.424 141.386 112.332 141.539 112.22C141.601 112.172 141.659 112.115 141.717 112.064C141.894 111.921 142.074 111.77 142.229 111.62C142.265 111.556 142.326 111.502 142.374 111.444C142.535 111.276 142.684 111.096 142.82 110.907C142.82 110.907 142.82 110.907 142.835 110.881L206.661 20.041L160.718 121.271C160.591 121.55 160.485 121.839 160.403 122.135C160.39 122.157 160.375 122.184 160.36 122.21C160.288 122.476 160.236 122.748 160.204 123.021C160.182 123.059 160.193 123.11 160.19 123.159C160.162 123.429 160.152 123.702 160.161 123.974L160.17 124.07C160.183 124.333 160.215 124.596 160.268 124.854C160.27 124.88 160.274 124.905 160.279 124.931L160.289 124.991C160.316 125.117 160.367 125.237 160.4 125.362C160.433 125.486 160.485 125.682 160.541 125.835C160.597 125.988 160.673 126.117 160.738 126.256C160.803 126.394 160.862 126.533 160.934 126.666C161.007 126.799 161.117 126.938 161.201 127.068C161.286 127.197 161.357 127.309 161.446 127.421C161.536 127.533 161.688 127.692 161.813 127.821C161.939 127.949 161.959 127.991 162.047 128.072L162.08 128.092C162.221 128.219 162.376 128.329 162.529 128.444C162.63 128.502 162.711 128.595 162.809 128.657C162.908 128.719 163.1 128.826 163.245 128.911C163.39 128.996 163.483 129.05 163.598 129.117C163.714 129.185 163.859 129.209 163.987 129.254C164.14 129.318 164.297 129.374 164.456 129.422C164.568 129.452 164.691 129.464 164.807 129.486C164.989 129.523 165.174 129.565 165.361 129.584L165.395 129.604L275.192 140L165.412 150.414L165.373 150.421C165.305 150.427 165.24 150.444 165.171 150.454C164.965 150.484 164.76 150.521 164.559 150.569L164.293 150.644C164.11 150.696 163.93 150.759 163.754 150.831C163.677 150.861 163.594 150.893 163.519 150.93C163.269 151.043 163.028 151.176 162.797 151.325C162.797 151.325 162.782 151.352 162.773 151.367C162.552 151.513 162.343 151.676 162.147 151.854C162.119 151.873 162.092 151.894 162.066 151.917C162.045 151.955 162.003 151.985 161.968 152.02C161.823 152.161 161.689 152.309 161.554 152.466C161.516 152.533 161.451 152.586 161.401 152.647C161.237 152.859 161.087 153.081 160.951 153.312C160.821 153.546 160.706 153.789 160.606 154.038C160.567 154.106 160.555 154.189 160.527 154.263C160.462 154.455 160.4 154.65 160.352 154.847L160.313 154.985C160.306 155.019 160.302 155.053 160.299 155.087C160.245 155.35 160.21 155.615 160.192 155.883C160.186 155.896 160.179 155.909 160.171 155.92C160.158 156.197 160.165 156.474 160.192 156.75C160.199 156.834 160.212 156.917 160.224 156.999C160.253 157.191 160.292 157.381 160.34 157.568C160.357 157.658 160.379 157.746 160.407 157.833C160.46 158.043 160.526 158.249 160.606 158.45C160.629 158.514 160.646 158.579 160.675 158.641L160.689 158.679L206.649 259.959L142.838 169.098L142.805 169.078C142.695 168.924 142.566 168.784 142.444 168.642C142.366 168.552 142.295 168.45 142.213 168.368C142.132 168.285 141.963 168.146 141.836 168.037C141.71 167.929 141.632 167.848 141.523 167.769C141.414 167.691 141.285 167.631 141.17 167.563C141.029 167.471 140.883 167.386 140.734 167.309C140.633 167.251 140.518 167.218 140.411 167.171C140.247 167.075 140.064 167.014 139.885 166.954L139.851 166.935C139.742 166.901 139.631 166.886 139.519 166.856C139.346 166.805 139.17 166.765 138.993 166.735C138.852 166.713 138.712 166.706 138.564 166.695C138.405 166.676 138.246 166.665 138.087 166.662C137.932 166.663 137.783 166.681 137.632 166.693C137.481 166.705 137.325 166.709 137.174 166.731C137.022 166.754 136.857 166.808 136.697 166.844C136.537 166.882 136.446 166.894 136.324 166.933L136.267 166.955L136.198 166.98C135.95 167.067 135.709 167.171 135.475 167.29L135.391 167.331C135.152 167.458 134.922 167.602 134.703 167.763C134.682 167.8 134.629 167.814 134.593 167.843C134.374 168.009 134.168 168.19 133.975 168.386C133.962 168.408 133.947 168.434 133.932 168.461C133.72 168.672 133.523 168.899 133.345 169.141L69.5338 259.954L115.499 158.687C115.499 158.687 115.51 158.668 115.514 158.661C115.603 158.462 115.669 158.25 115.737 158.044C115.78 157.969 115.805 157.873 115.826 157.785C115.875 157.584 115.914 157.381 115.941 157.175C115.958 157.075 115.983 156.979 115.995 156.881C116.015 156.707 116.008 156.528 116.015 156.351C116.022 156.174 116.031 156.089 116.025 155.961C116.019 155.832 115.99 155.674 115.967 155.531C115.945 155.388 115.937 155.202 115.906 155.039C115.906 155.039 115.917 155.02 115.897 154.994C115.87 154.868 115.819 154.748 115.786 154.623C115.753 154.499 115.701 154.303 115.645 154.15C115.589 153.997 115.514 153.868 115.451 153.726C115.388 153.584 115.327 153.448 115.252 153.319C115.177 153.19 115.075 153.046 114.987 152.914C114.898 152.782 114.828 152.671 114.739 152.558C114.649 152.446 114.494 152.291 114.369 152.163C114.244 152.034 114.223 151.992 114.136 151.911L114.102 151.892C113.96 151.766 113.81 151.648 113.653 151.539C113.553 151.481 113.472 151.388 113.373 151.326C113.232 151.234 113.087 151.149 112.938 151.072C112.822 151.004 112.703 150.935 112.584 150.866C112.465 150.796 112.33 150.773 112.198 150.725C112.066 150.679 111.885 150.603 111.726 150.561C111.567 150.518 111.492 150.52 111.378 150.493C111.264 150.467 111.011 150.414 110.824 150.395L110.79 150.376L1 139.984L110.782 129.601Z" fill="#FFEEA8" stroke="#041E42" stroke-miterlimit="10" stroke-linejoin="round"/>
<path d="M127.852 167.698L127.846 167.665C127.82 167.452 127.783 167.24 127.736 167.031C127.715 166.938 127.707 166.838 127.686 166.745C127.629 166.549 127.563 166.355 127.486 166.165C127.452 166.069 127.425 165.968 127.385 165.874C127.344 165.78 127.226 165.57 127.149 165.418C127.072 165.267 127.033 165.179 126.963 165.067C126.893 164.955 126.795 164.842 126.715 164.73C126.635 164.618 126.517 164.452 126.406 164.327L126.369 164.305C126.284 164.21 126.189 164.134 126.097 164.044C126.004 163.955 125.862 163.805 125.734 163.7C125.606 163.594 125.49 163.521 125.367 163.433C125.244 163.346 125.119 163.252 124.986 163.174C124.853 163.095 124.723 163.019 124.575 162.967C124.426 162.915 124.316 162.815 124.165 162.776C124.014 162.738 123.851 162.677 123.691 162.628C123.531 162.579 123.457 162.545 123.334 162.519L123.297 162.497C123.131 162.465 122.965 162.443 122.797 162.429C122.529 162.374 122.254 162.36 121.982 162.387C121.817 162.39 121.649 162.382 121.482 162.399C121.314 162.416 121.27 162.441 121.162 162.458C121.054 162.475 120.781 162.521 120.602 162.576C120.509 162.601 120.414 162.646 120.322 162.678C120.125 162.738 119.93 162.81 119.741 162.894L119.706 162.904L20.0443 209.511L109.476 144.823L109.496 144.789C109.648 144.677 109.786 144.547 109.925 144.423C110.014 144.345 110.114 144.273 110.195 144.19C110.277 144.107 110.413 143.936 110.52 143.808C110.627 143.68 110.707 143.6 110.784 143.49C110.861 143.379 110.919 143.252 110.998 143.113C111.088 142.97 111.172 142.823 111.248 142.671C111.306 142.569 111.337 142.452 111.384 142.344C111.459 142.167 111.538 141.992 111.597 141.81C111.606 141.799 111.613 141.786 111.618 141.773C111.652 141.662 111.666 141.549 111.693 141.439C111.738 141.265 111.785 141.086 111.813 140.906C111.841 140.726 111.844 140.617 111.856 140.474C111.868 140.33 111.886 140.149 111.884 139.987C111.882 139.825 111.864 139.683 111.852 139.53C111.84 139.378 111.836 139.219 111.814 139.066C111.793 138.912 111.741 138.741 111.703 138.582C111.664 138.424 111.655 138.328 111.616 138.204L111.598 138.158C111.547 138.003 111.481 137.859 111.417 137.71C111.367 137.569 111.31 137.432 111.246 137.297C111.193 137.191 111.124 137.095 111.067 136.996C110.971 136.834 110.879 136.664 110.77 136.509C110.722 136.446 110.666 136.387 110.616 136.328C110.48 136.148 110.333 135.976 110.177 135.813C110.114 135.776 110.06 135.714 110.006 135.662C109.84 135.499 109.664 135.348 109.477 135.21L109.452 135.195L20.0403 70.4915L119.678 117.066C119.953 117.195 120.237 117.302 120.529 117.386L120.603 117.429C120.865 117.501 121.132 117.554 121.401 117.587L121.537 117.602C121.803 117.632 122.071 117.641 122.339 117.631L122.433 117.621C122.692 117.609 122.951 117.575 123.205 117.522L123.28 117.511L123.34 117.501C123.464 117.473 123.58 117.426 123.705 117.389C123.829 117.351 124.02 117.303 124.171 117.245C124.321 117.188 124.449 117.112 124.585 117.046C124.721 116.98 124.858 116.921 124.989 116.847C125.12 116.772 125.254 116.666 125.388 116.578C125.521 116.491 125.623 116.415 125.734 116.324C125.844 116.233 126.001 116.079 126.127 115.952C126.206 115.873 126.295 115.804 126.373 115.719C126.381 115.708 126.388 115.695 126.394 115.681C126.519 115.539 126.628 115.381 126.74 115.226C126.798 115.124 126.889 115.042 126.95 114.943C127.041 114.8 127.125 114.652 127.201 114.501C127.269 114.38 127.337 114.259 127.414 114.124C127.491 113.988 127.504 113.86 127.552 113.732C127.6 113.604 127.672 113.415 127.714 113.254C127.756 113.093 127.755 113.016 127.777 112.899C127.813 112.714 127.854 112.526 127.873 112.337L127.893 112.302L138.123 1L148.352 112.327L148.36 112.366C148.365 112.435 148.382 112.5 148.392 112.571C148.418 112.78 148.455 112.987 148.504 113.191C148.526 113.284 148.551 113.37 148.579 113.461C148.63 113.646 148.692 113.829 148.763 114.007C148.793 114.085 148.824 114.169 148.86 114.245C148.972 114.499 149.102 114.744 149.249 114.978L149.29 115.002C149.436 115.223 149.597 115.434 149.772 115.632C149.79 115.661 149.811 115.689 149.834 115.714C149.866 115.75 149.9 115.783 149.935 115.814C150.074 115.962 150.22 116.102 150.374 116.233L150.552 116.389C150.761 116.555 150.98 116.707 151.207 116.845C151.438 116.977 151.676 117.094 151.922 117.195L152.143 117.275C152.332 117.344 152.523 117.404 152.718 117.452C152.763 117.468 152.808 117.481 152.854 117.492C152.887 117.499 152.921 117.503 152.954 117.506C153.212 117.562 153.474 117.599 153.737 117.614L153.774 117.636C154.046 117.649 154.319 117.642 154.591 117.614C154.674 117.607 154.755 117.594 154.836 117.582C155.025 117.553 155.212 117.513 155.396 117.464C155.483 117.447 155.569 117.425 155.655 117.4C155.854 117.339 156.051 117.269 156.243 117.188C156.308 117.161 156.372 117.143 156.433 117.114L156.471 117.1L256.136 70.4948L166.704 135.183L166.685 135.217C166.533 135.328 166.395 135.458 166.255 135.583C166.166 135.661 166.066 135.733 165.985 135.816C165.903 135.899 165.767 136.07 165.66 136.198C165.553 136.326 165.474 136.406 165.396 136.516C165.319 136.626 165.259 136.757 165.182 136.893C165.092 137.036 165.009 137.183 164.933 137.335C164.875 137.437 164.843 137.554 164.797 137.662C164.721 137.839 164.642 138.014 164.583 138.196C164.575 138.206 164.569 138.217 164.564 138.229C164.53 138.341 164.516 138.453 164.487 138.567C164.436 138.742 164.396 138.92 164.367 139.1C164.345 139.243 164.339 139.385 164.328 139.535C164.317 139.684 164.294 139.856 164.296 140.019C164.298 140.181 164.316 140.323 164.328 140.476C164.34 140.629 164.345 140.787 164.366 140.94C164.388 141.094 164.441 141.261 164.477 141.423C164.514 141.586 164.526 141.678 164.564 141.802L164.586 141.86L164.614 141.932C164.696 142.183 164.797 142.427 164.916 142.662L164.955 142.751C165.081 142.991 165.224 143.223 165.381 143.444L165.46 143.556C165.623 143.778 165.802 143.987 165.994 144.183L166.068 144.226C166.285 144.442 166.518 144.639 166.764 144.817L256.15 209.506L156.479 162.911L156.449 162.893C156.254 162.804 156.045 162.736 155.842 162.667C155.758 162.642 155.672 162.602 155.587 162.577C155.389 162.527 155.189 162.488 154.987 162.46C154.889 162.443 154.794 162.418 154.697 162.406C154.526 162.385 154.35 162.392 154.174 162.389C153.998 162.386 153.918 162.37 153.792 162.376C153.665 162.382 153.51 162.411 153.369 162.434C153.228 162.456 153.046 162.465 152.885 162.496C152.885 162.496 152.866 162.485 152.84 162.505C152.716 162.532 152.598 162.584 152.475 162.617C152.353 162.651 152.16 162.703 152.01 162.761C151.859 162.818 151.732 162.894 151.592 162.958C151.452 163.021 151.318 163.083 151.192 163.159C151.064 163.236 150.923 163.338 150.793 163.428C150.663 163.517 150.553 163.589 150.443 163.68C150.332 163.771 150.179 163.927 150.053 164.054C149.927 164.181 149.884 164.206 149.806 164.291C149.797 164.301 149.791 164.312 149.786 164.325C149.663 164.469 149.547 164.621 149.44 164.78C149.382 164.882 149.291 164.964 149.23 165.063C149.139 165.206 149.056 165.354 148.98 165.505C148.913 165.622 148.845 165.743 148.766 165.882C148.687 166.022 148.674 166.14 148.628 166.274C148.582 166.408 148.508 166.591 148.466 166.752C148.424 166.913 148.425 166.99 148.399 167.105C148.364 167.29 148.322 167.477 148.303 167.667C148.303 167.667 148.29 167.69 148.284 167.701L138.055 279L127.852 167.698Z" fill="#FFCC00" stroke="#041E42" stroke-miterlimit="10" stroke-linejoin="round"/>
<path d="M176.804 118.484C178.364 115.929 179.377 113.108 179.784 110.181C180.191 107.256 179.985 104.282 179.177 101.432C178.369 98.5816 176.975 95.9099 175.075 93.5695C173.175 91.2292 170.806 89.2659 168.104 87.7925C165.405 86.3166 162.424 85.3588 159.333 84.9733C156.242 84.5878 153.1 84.7825 150.089 85.5461C147.077 86.3095 144.254 87.6272 141.781 89.4235C139.308 91.2198 137.232 93.4594 135.674 96.0149L119.056 123.251L160.17 145.712L176.804 118.484Z" fill="#02E2AC" stroke="#041E42" stroke-miterlimit="10" stroke-linejoin="round"/>
<path d="M119.824 122.863L103.197 151.807C100.048 157.287 99.1938 163.8 100.821 169.913C102.448 176.026 106.425 181.24 111.875 184.408C117.331 187.571 123.814 188.428 129.897 186.788C135.981 185.149 141.168 181.149 144.318 175.667L160.946 146.723L119.824 122.863Z" fill="#B3FFED" stroke="#041E42" stroke-miterlimit="10" stroke-linejoin="round"/>
<path d="M164.534 84.7808C168.798 88.2507 171.668 93.0753 172.64 98.4043C173.611 103.734 172.622 109.226 169.845 113.914L153.33 141.782L160.318 145.712L176.833 117.845C178.381 115.23 179.385 112.344 179.787 109.352C180.19 106.359 179.983 103.319 179.179 100.404C178.376 97.4898 176.991 94.7579 175.103 92.3646C173.215 89.9717 170.862 87.9643 168.178 86.4571C167.014 85.7997 165.795 85.2387 164.534 84.7808Z" fill="#11BC92" stroke="#041E42" stroke-miterlimit="10" stroke-linejoin="round"/>
<path d="M153.787 141.904L136.872 171.322C134.026 176.27 129.533 180.05 124.183 181.997C118.834 183.944 112.971 183.932 107.63 181.964C108.691 182.858 109.827 183.658 111.026 184.355C116.576 187.571 123.171 188.441 129.36 186.775C135.549 185.109 140.825 181.043 144.029 175.471L160.945 146.053L153.787 141.904Z" fill="#11BC92" stroke="#041E42" stroke-miterlimit="10" stroke-linejoin="round"/>
</svg>
