<svg width="150" height="150" viewBox="0 0 150 150" fill="none" xmlns="http://www.w3.org/2000/svg">
<path d="M75.3016 0.000121996C82.1841 0.0301123 87.7471 5.57831 87.7171 12.3861C87.6871 19.1939 82.0941 24.7121 75.1966 24.6821C68.3141 24.6521 62.7511 19.1039 62.7811 12.2961C62.8111 5.47335 68.419 -0.0298683 75.3016 0.000121996ZM82.7239 48.6593C79.0352 43.0662 71.253 43.0362 67.5194 48.5994C58.9725 61.3452 46.302 82.1135 46.257 93.2849C46.1971 110.139 58.9875 123.86 74.8367 123.92C90.686 123.98 103.581 110.364 103.641 93.4948C103.686 82.3234 91.1808 61.4652 82.7239 48.6593Z" fill="#FFCC00"/>
<path d="M109.339 9.81003C106.265 8.25054 102.502 9.43515 100.927 12.4642C99.3377 15.4932 100.552 19.227 103.611 20.8015C124.589 31.508 137.574 52.6811 137.484 76.0285C137.439 86.4352 134.785 96.227 130.152 104.819C130.796 101.49 131.156 98.0714 131.171 94.5625C131.216 80.9919 126.283 67.9012 117.256 57.7045C114.977 55.1403 111.033 54.8704 108.439 57.1347C105.845 59.3839 105.59 63.2977 107.855 65.8618C114.872 73.7943 118.726 83.976 118.681 94.5325C118.591 117.625 100.117 136.504 77.0407 137.584C76.291 137.614 75.5413 137.629 74.7915 137.629C74.0418 137.629 73.2921 137.599 72.5424 137.569C49.4657 136.324 31.1273 117.31 31.2173 94.1876C31.2472 84.2309 34.606 74.8889 40.9038 67.1664C43.078 64.5123 42.6581 60.6135 39.9741 58.4692C37.2901 56.3249 33.3615 56.7448 31.1873 59.3989C23.1951 69.1908 18.7717 81.5318 18.7268 94.1427C18.7118 97.6515 19.0416 101.085 19.6564 104.414C15.0831 95.7921 12.504 85.9703 12.534 75.5787C12.624 52.2163 25.7592 31.1631 46.8266 20.5915C49.9005 19.047 51.1301 15.3282 49.5706 12.2842C48.0112 9.24022 44.2476 8.02561 41.1737 9.55511C15.9078 22.226 0.148456 47.5078 0.0434943 75.5187C-0.106452 115.481 31.847 148.26 71.8526 149.91C72.8123 149.955 73.7719 149.985 74.7466 150C116.087 150.149 149.839 116.98 149.989 76.0735C150.094 48.0476 134.515 22.6609 109.339 9.81003Z" fill="#02E2AC"/>
</svg>
